<svg width="455" height="80" viewBox="0 0 455 80" fill="none" xmlns="http://www.w3.org/2000/svg">
<path d="M33.9062 41H29.3125L25.4688 29.3438H9.34375L5.5625 41H0.96875L14.5312 0.21875H20.3438L33.9062 41ZM24.25 25.5625L17.4062 4.53125L10.5625 25.5625H24.25ZM65.3438 41H61.0312V23.0312C61.0312 20.4271 60.4688 18.4062 59.3438 16.9688C58.2188 15.5312 56.3958 14.8125 53.875 14.8125C52.2917 14.8125 50.8542 15.1771 49.5625 15.9062C48.2917 16.6354 47.2083 17.6146 46.3125 18.8438C45.4167 20.0521 44.7292 21.4479 44.25 23.0312C43.7917 24.5938 43.5625 26.2292 43.5625 27.9375V41H39.2812V11.875H43.5625V19.1875C45.625 13.8542 49.3021 11.1875 54.5938 11.1875C61.7604 11.1875 65.3438 15.1354 65.3438 23.0312V41ZM102.562 26.5312C102.562 28.8021 102.198 30.8646 101.469 32.7188C100.76 34.5729 99.7292 36.1667 98.375 37.5C97.0417 38.8125 95.4375 39.8438 93.5625 40.5938C91.6875 41.3438 89.5938 41.7188 87.2812 41.7188C85.0104 41.7188 82.9375 41.3438 81.0625 40.5938C79.1875 39.8438 77.5729 38.8125 76.2188 37.5C74.8854 36.1667 73.8542 34.5729 73.125 32.7188C72.4167 30.8646 72.0625 28.8021 72.0625 26.5312C72.0625 24.3229 72.4167 22.2708 73.125 20.375C73.8542 18.4583 74.8854 16.8333 76.2188 15.5C77.5729 14.1458 79.1875 13.0938 81.0625 12.3438C82.9375 11.5729 85.0104 11.1875 87.2812 11.1875C89.5938 11.1875 91.6875 11.5729 93.5625 12.3438C95.4375 13.0938 97.0417 14.1458 98.375 15.5C99.7292 16.8333 100.76 18.4583 101.469 20.375C102.198 22.2708 102.562 24.3229 102.562 26.5312ZM98.2812 26.5312C98.2812 24.8646 98.0312 23.3333 97.5312 21.9375C97.0521 20.5208 96.3333 19.2812 95.375 18.2188C94.4167 17.1562 93.25 16.3229 91.875 15.7188C90.5208 15.1146 88.9896 14.8125 87.2812 14.8125C85.5729 14.8125 84.0312 15.1146 82.6562 15.7188C81.3021 16.3229 80.1562 17.1562 79.2188 18.2188C78.2812 19.2812 77.5625 20.5208 77.0625 21.9375C76.5833 23.3333 76.3438 24.8646 76.3438 26.5312C76.3438 28.1979 76.5833 29.7396 77.0625 31.1562C77.5625 32.5521 78.2812 33.7604 79.2188 34.7812C80.1562 35.8021 81.3021 36.6042 82.6562 37.1875C84.0312 37.7708 85.5729 38.0625 87.2812 38.0625C88.9896 38.0625 90.5208 37.7708 91.875 37.1875C93.25 36.6042 94.4167 35.8021 95.375 34.7812C96.3333 33.7604 97.0521 32.5521 97.5312 31.1562C98.0312 29.7396 98.2812 28.1979 98.2812 26.5312ZM135.219 41H130.906V23.0312C130.906 20.4271 130.344 18.4062 129.219 16.9688C128.094 15.5312 126.271 14.8125 123.75 14.8125C122.167 14.8125 120.729 15.1771 119.438 15.9062C118.167 16.6354 117.083 17.6146 116.188 18.8438C115.292 20.0521 114.604 21.4479 114.125 23.0312C113.667 24.5938 113.438 26.2292 113.438 27.9375V41H109.156V11.875H113.438V19.1875C115.5 13.8542 119.177 11.1875 124.469 11.1875C131.635 11.1875 135.219 15.1354 135.219 23.0312V41ZM172.594 11.875L156.844 48.375C156.031 50.4167 154.885 51.75 153.406 52.375C151.927 53.0208 150.292 53.3438 148.5 53.3438C146.5 53.3438 144.5 52.9792 142.5 52.25L143.344 48.5625C144.323 48.9792 145.281 49.2708 146.219 49.4375C147.156 49.625 147.917 49.7188 148.5 49.7188C149.917 49.7188 150.885 49.375 151.406 48.6875C151.948 48 152.417 47.1875 152.812 46.25L154.594 41.8438L141.594 11.875H146.656L157.156 37.3438L167.469 11.875H172.594ZM206.625 41H202.344V20.0625C202.344 18.3958 202.052 17.1042 201.469 16.1875C200.885 15.2708 200.042 14.8125 198.938 14.8125C197.312 14.8125 196.115 15.6667 195.344 17.375C194.594 19.0833 194.219 21.4792 194.219 24.5625V41H189.906V20.0625C189.906 18.3958 189.604 17.1042 189 16.1875C188.417 15.2708 187.573 14.8125 186.469 14.8125C185.448 14.8125 184.635 15.1146 184.031 15.7188C183.427 16.3229 182.948 17.0938 182.594 18.0312C182.26 18.9688 182.042 20.0104 181.938 21.1562C181.833 22.3021 181.781 23.4375 181.781 24.5625V41H177.5V11.875H181.781V16.0938C182.677 12.8229 184.625 11.1875 187.625 11.1875C190.479 11.1875 192.417 12.6146 193.438 15.4688C194.854 12.6146 196.854 11.1875 199.438 11.1875C201.917 11.1875 203.729 11.9271 204.875 13.4062C206.042 14.8646 206.625 17.0833 206.625 20.0625V41ZM242.312 26.5312C242.312 28.8021 241.948 30.8646 241.219 32.7188C240.51 34.5729 239.479 36.1667 238.125 37.5C236.792 38.8125 235.188 39.8438 233.312 40.5938C231.438 41.3438 229.344 41.7188 227.031 41.7188C224.76 41.7188 222.688 41.3438 220.812 40.5938C218.938 39.8438 217.323 38.8125 215.969 37.5C214.635 36.1667 213.604 34.5729 212.875 32.7188C212.167 30.8646 211.812 28.8021 211.812 26.5312C211.812 24.3229 212.167 22.2708 212.875 20.375C213.604 18.4583 214.635 16.8333 215.969 15.5C217.323 14.1458 218.938 13.0938 220.812 12.3438C222.688 11.5729 224.76 11.1875 227.031 11.1875C229.344 11.1875 231.438 11.5729 233.312 12.3438C235.188 13.0938 236.792 14.1458 238.125 15.5C239.479 16.8333 240.51 18.4583 241.219 20.375C241.948 22.2708 242.312 24.3229 242.312 26.5312ZM238.031 26.5312C238.031 24.8646 237.781 23.3333 237.281 21.9375C236.802 20.5208 236.083 19.2812 235.125 18.2188C234.167 17.1562 233 16.3229 231.625 15.7188C230.271 15.1146 228.74 14.8125 227.031 14.8125C225.323 14.8125 223.781 15.1146 222.406 15.7188C221.052 16.3229 219.906 17.1562 218.969 18.2188C218.031 19.2812 217.312 20.5208 216.812 21.9375C216.333 23.3333 216.094 24.8646 216.094 26.5312C216.094 28.1979 216.333 29.7396 216.812 31.1562C217.312 32.5521 218.031 33.7604 218.969 34.7812C219.906 35.8021 221.052 36.6042 222.406 37.1875C223.781 37.7708 225.323 38.0625 227.031 38.0625C228.74 38.0625 230.271 37.7708 231.625 37.1875C233 36.6042 234.167 35.8021 235.125 34.7812C236.083 33.7604 236.802 32.5521 237.281 31.1562C237.781 29.7396 238.031 28.1979 238.031 26.5312ZM248.906 11.875H253.188V29.875C253.188 32.4792 253.75 34.5 254.875 35.9375C256.021 37.3542 257.854 38.0625 260.375 38.0625C261.958 38.0625 263.385 37.6979 264.656 36.9688C265.927 36.2396 267.01 35.2708 267.906 34.0625C268.802 32.8333 269.479 31.4375 269.938 29.875C270.417 28.2917 270.656 26.6458 270.656 24.9375V11.875H274.969V41H270.656V33.7188C268.615 39.0521 264.948 41.7188 259.656 41.7188C252.49 41.7188 248.906 37.7708 248.906 29.875V11.875ZM310.656 32.9375C310.656 34.6458 310.229 36.0625 309.375 37.1875C308.521 38.3125 307.417 39.2083 306.062 39.875C304.729 40.5417 303.229 41.0104 301.562 41.2812C299.917 41.5729 298.302 41.7188 296.719 41.7188C294.073 41.7188 291.438 41.3333 288.812 40.5625C286.188 39.7917 283.917 38.7812 282 37.5312L283.906 33.8438C286.052 35.1979 288.167 36.2396 290.25 36.9688C292.333 37.6979 294.49 38.0625 296.719 38.0625C303.156 38.0625 306.375 36.3958 306.375 33.0625C306.375 32.25 306.104 31.5938 305.562 31.0938C305.042 30.5729 304.333 30.1562 303.438 29.8438C302.542 29.5104 301.51 29.25 300.344 29.0625C299.198 28.875 297.99 28.6979 296.719 28.5312C295.094 28.3021 293.479 28.0312 291.875 27.7188C290.271 27.4062 288.802 26.9375 287.469 26.3125C286.156 25.6875 285.094 24.8542 284.281 23.8125C283.49 22.7708 283.094 21.3958 283.094 19.6875C283.094 18.2292 283.458 16.9688 284.188 15.9062C284.938 14.8438 285.927 13.9583 287.156 13.25C288.406 12.5417 289.865 12.0208 291.531 11.6875C293.198 11.3542 294.927 11.1875 296.719 11.1875C299.281 11.1875 301.573 11.4896 303.594 12.0938C305.615 12.6771 307.438 13.5208 309.062 14.625L307.344 17.9688C305.677 16.8021 303.99 15.9896 302.281 15.5312C300.573 15.0521 298.719 14.8125 296.719 14.8125C295.823 14.8125 294.823 14.8958 293.719 15.0625C292.635 15.2083 291.625 15.4792 290.688 15.875C289.75 16.25 288.958 16.75 288.312 17.375C287.688 17.9792 287.375 18.75 287.375 19.6875C287.375 20.5 287.635 21.1562 288.156 21.6562C288.698 22.1354 289.417 22.5417 290.312 22.875C291.208 23.1875 292.229 23.4375 293.375 23.625C294.542 23.8125 295.76 23.9896 297.031 24.1562C298.615 24.3854 300.208 24.6562 301.812 24.9688C303.438 25.2812 304.906 25.7396 306.219 26.3438C307.552 26.9479 308.625 27.7708 309.438 28.8125C310.25 29.8542 310.656 31.2292 310.656 32.9375ZM381.25 11.875C381.25 15.8125 380.021 18.7396 377.562 20.6562C375.104 22.5729 371.656 23.5312 367.219 23.5312H358V41H353.719V0.21875H367.156C371.635 0.21875 375.104 1.19792 377.562 3.15625C380.021 5.09375 381.25 8 381.25 11.875ZM376.969 11.875C376.969 9.0625 376.083 7.03125 374.312 5.78125C372.542 4.51042 370.177 3.875 367.219 3.875H358V19.875H367.219C370.177 19.875 372.542 19.25 374.312 18C376.083 16.7292 376.969 14.6875 376.969 11.875ZM414.656 15.9688C413.115 15.1979 411.281 14.8125 409.156 14.8125C407.406 14.8125 405.844 15.1875 404.469 15.9375C403.094 16.6875 401.927 17.6771 400.969 18.9062C400.01 20.1146 399.271 21.5104 398.75 23.0938C398.25 24.6562 398 26.2708 398 27.9375V37.3438H404.594V41H387.125V37.3438H393.719V15.5312H387.125V11.875H398V19.1875C399.958 13.8542 403.677 11.1875 409.156 11.1875C410.635 11.1875 411.917 11.2812 413 11.4688C414.104 11.6562 415.125 11.9896 416.062 12.4688L414.656 15.9688ZM451.938 26.5312C451.938 28.8021 451.573 30.8646 450.844 32.7188C450.135 34.5729 449.104 36.1667 447.75 37.5C446.417 38.8125 444.812 39.8438 442.938 40.5938C441.062 41.3438 438.969 41.7188 436.656 41.7188C434.385 41.7188 432.312 41.3438 430.438 40.5938C428.562 39.8438 426.948 38.8125 425.594 37.5C424.26 36.1667 423.229 34.5729 422.5 32.7188C421.792 30.8646 421.438 28.8021 421.438 26.5312C421.438 24.3229 421.792 22.2708 422.5 20.375C423.229 18.4583 424.26 16.8333 425.594 15.5C426.948 14.1458 428.562 13.0938 430.438 12.3438C432.312 11.5729 434.385 11.1875 436.656 11.1875C438.969 11.1875 441.062 11.5729 442.938 12.3438C444.812 13.0938 446.417 14.1458 447.75 15.5C449.104 16.8333 450.135 18.4583 450.844 20.375C451.573 22.2708 451.938 24.3229 451.938 26.5312ZM447.656 26.5312C447.656 24.8646 447.406 23.3333 446.906 21.9375C446.427 20.5208 445.708 19.2812 444.75 18.2188C443.792 17.1562 442.625 16.3229 441.25 15.7188C439.896 15.1146 438.365 14.8125 436.656 14.8125C434.948 14.8125 433.406 15.1146 432.031 15.7188C430.677 16.3229 429.531 17.1562 428.594 18.2188C427.656 19.2812 426.938 20.5208 426.438 21.9375C425.958 23.3333 425.719 24.8646 425.719 26.5312C425.719 28.1979 425.958 29.7396 426.438 31.1562C426.938 32.5521 427.656 33.7604 428.594 34.7812C429.531 35.8021 430.677 36.6042 432.031 37.1875C433.406 37.7708 434.948 38.0625 436.656 38.0625C438.365 38.0625 439.896 37.7708 441.25 37.1875C442.625 36.6042 443.792 35.8021 444.75 34.7812C445.708 33.7604 446.427 32.5521 446.906 31.1562C447.406 29.7396 447.656 28.1979 447.656 26.5312ZM245.453 73H243.156L241.234 67.1719H233.172L231.281 73H228.984L235.766 52.6094H238.672L245.453 73ZM240.625 65.2812L237.203 54.7656L233.781 65.2812H240.625ZM261.172 73H259.016V64.0156C259.016 62.7135 258.734 61.7031 258.172 60.9844C257.609 60.2656 256.698 59.9062 255.438 59.9062C254.646 59.9062 253.927 60.0885 253.281 60.4531C252.646 60.8177 252.104 61.3073 251.656 61.9219C251.208 62.526 250.865 63.224 250.625 64.0156C250.396 64.7969 250.281 65.6146 250.281 66.4688V73H248.141V58.4375H250.281V62.0938C251.312 59.4271 253.151 58.0938 255.797 58.0938C259.38 58.0938 261.172 60.0677 261.172 64.0156V73ZM279.781 65.7656C279.781 66.901 279.599 67.9323 279.234 68.8594C278.88 69.7865 278.365 70.5833 277.688 71.25C277.021 71.9062 276.219 72.4219 275.281 72.7969C274.344 73.1719 273.297 73.3594 272.141 73.3594C271.005 73.3594 269.969 73.1719 269.031 72.7969C268.094 72.4219 267.286 71.9062 266.609 71.25C265.943 70.5833 265.427 69.7865 265.062 68.8594C264.708 67.9323 264.531 66.901 264.531 65.7656C264.531 64.6615 264.708 63.6354 265.062 62.6875C265.427 61.7292 265.943 60.9167 266.609 60.25C267.286 59.5729 268.094 59.0469 269.031 58.6719C269.969 58.2865 271.005 58.0938 272.141 58.0938C273.297 58.0938 274.344 58.2865 275.281 58.6719C276.219 59.0469 277.021 59.5729 277.688 60.25C278.365 60.9167 278.88 61.7292 279.234 62.6875C279.599 63.6354 279.781 64.6615 279.781 65.7656ZM277.641 65.7656C277.641 64.9323 277.516 64.1667 277.266 63.4688C277.026 62.7604 276.667 62.1406 276.188 61.6094C275.708 61.0781 275.125 60.6615 274.438 60.3594C273.76 60.0573 272.995 59.9062 272.141 59.9062C271.286 59.9062 270.516 60.0573 269.828 60.3594C269.151 60.6615 268.578 61.0781 268.109 61.6094C267.641 62.1406 267.281 62.7604 267.031 63.4688C266.792 64.1667 266.672 64.9323 266.672 65.7656C266.672 66.599 266.792 67.3698 267.031 68.0781C267.281 68.776 267.641 69.3802 268.109 69.8906C268.578 70.401 269.151 70.8021 269.828 71.0938C270.516 71.3854 271.286 71.5312 272.141 71.5312C272.995 71.5312 273.76 71.3854 274.438 71.0938C275.125 70.8021 275.708 70.401 276.188 69.8906C276.667 69.3802 277.026 68.776 277.266 68.0781C277.516 67.3698 277.641 66.599 277.641 65.7656ZM296.109 73H293.953V64.0156C293.953 62.7135 293.672 61.7031 293.109 60.9844C292.547 60.2656 291.635 59.9062 290.375 59.9062C289.583 59.9062 288.865 60.0885 288.219 60.4531C287.583 60.8177 287.042 61.3073 286.594 61.9219C286.146 62.526 285.802 63.224 285.562 64.0156C285.333 64.7969 285.219 65.6146 285.219 66.4688V73H283.078V58.4375H285.219V62.0938C286.25 59.4271 288.089 58.0938 290.734 58.0938C294.318 58.0938 296.109 60.0677 296.109 64.0156V73ZM314.797 58.4375L306.922 76.6875C306.516 77.7083 305.943 78.375 305.203 78.6875C304.464 79.0104 303.646 79.1719 302.75 79.1719C301.75 79.1719 300.75 78.9896 299.75 78.625L300.172 76.7812C300.661 76.9896 301.141 77.1354 301.609 77.2188C302.078 77.3125 302.458 77.3594 302.75 77.3594C303.458 77.3594 303.943 77.1875 304.203 76.8438C304.474 76.5 304.708 76.0938 304.906 75.625L305.797 73.4219L299.297 58.4375H301.828L307.078 71.1719L312.234 58.4375H314.797ZM331.812 73H329.672V62.5312C329.672 61.6979 329.526 61.0521 329.234 60.5938C328.943 60.1354 328.521 59.9062 327.969 59.9062C327.156 59.9062 326.557 60.3333 326.172 61.1875C325.797 62.0417 325.609 63.2396 325.609 64.7812V73H323.453V62.5312C323.453 61.6979 323.302 61.0521 323 60.5938C322.708 60.1354 322.286 59.9062 321.734 59.9062C321.224 59.9062 320.818 60.0573 320.516 60.3594C320.214 60.6615 319.974 61.0469 319.797 61.5156C319.63 61.9844 319.521 62.5052 319.469 63.0781C319.417 63.651 319.391 64.2188 319.391 64.7812V73H317.25V58.4375H319.391V60.5469C319.839 58.9115 320.812 58.0938 322.312 58.0938C323.74 58.0938 324.708 58.8073 325.219 60.2344C325.927 58.8073 326.927 58.0938 328.219 58.0938C329.458 58.0938 330.365 58.4635 330.938 59.2031C331.521 59.9323 331.812 61.0417 331.812 62.5312V73ZM349.656 65.7656C349.656 66.901 349.474 67.9323 349.109 68.8594C348.755 69.7865 348.24 70.5833 347.562 71.25C346.896 71.9062 346.094 72.4219 345.156 72.7969C344.219 73.1719 343.172 73.3594 342.016 73.3594C340.88 73.3594 339.844 73.1719 338.906 72.7969C337.969 72.4219 337.161 71.9062 336.484 71.25C335.818 70.5833 335.302 69.7865 334.938 68.8594C334.583 67.9323 334.406 66.901 334.406 65.7656C334.406 64.6615 334.583 63.6354 334.938 62.6875C335.302 61.7292 335.818 60.9167 336.484 60.25C337.161 59.5729 337.969 59.0469 338.906 58.6719C339.844 58.2865 340.88 58.0938 342.016 58.0938C343.172 58.0938 344.219 58.2865 345.156 58.6719C346.094 59.0469 346.896 59.5729 347.562 60.25C348.24 60.9167 348.755 61.7292 349.109 62.6875C349.474 63.6354 349.656 64.6615 349.656 65.7656ZM347.516 65.7656C347.516 64.9323 347.391 64.1667 347.141 63.4688C346.901 62.7604 346.542 62.1406 346.062 61.6094C345.583 61.0781 345 60.6615 344.312 60.3594C343.635 60.0573 342.87 59.9062 342.016 59.9062C341.161 59.9062 340.391 60.0573 339.703 60.3594C339.026 60.6615 338.453 61.0781 337.984 61.6094C337.516 62.1406 337.156 62.7604 336.906 63.4688C336.667 64.1667 336.547 64.9323 336.547 65.7656C336.547 66.599 336.667 67.3698 336.906 68.0781C337.156 68.776 337.516 69.3802 337.984 69.8906C338.453 70.401 339.026 70.8021 339.703 71.0938C340.391 71.3854 341.161 71.5312 342.016 71.5312C342.87 71.5312 343.635 71.3854 344.312 71.0938C345 70.8021 345.583 70.401 346.062 69.8906C346.542 69.3802 346.901 68.776 347.141 68.0781C347.391 67.3698 347.516 66.599 347.516 65.7656ZM352.953 58.4375H355.094V67.4375C355.094 68.7396 355.375 69.75 355.938 70.4688C356.51 71.1771 357.427 71.5312 358.688 71.5312C359.479 71.5312 360.193 71.349 360.828 70.9844C361.464 70.6198 362.005 70.1354 362.453 69.5312C362.901 68.9167 363.24 68.2188 363.469 67.4375C363.708 66.6458 363.828 65.8229 363.828 64.9688V58.4375H365.984V73H363.828V69.3594C362.807 72.026 360.974 73.3594 358.328 73.3594C354.745 73.3594 352.953 71.3854 352.953 67.4375V58.4375ZM383.828 68.9688C383.828 69.8229 383.615 70.5312 383.188 71.0938C382.76 71.6562 382.208 72.1042 381.531 72.4375C380.865 72.7708 380.115 73.0052 379.281 73.1406C378.458 73.2865 377.651 73.3594 376.859 73.3594C375.536 73.3594 374.219 73.1667 372.906 72.7812C371.594 72.3958 370.458 71.8906 369.5 71.2656L370.453 69.4219C371.526 70.099 372.583 70.6198 373.625 70.9844C374.667 71.349 375.745 71.5312 376.859 71.5312C380.078 71.5312 381.688 70.6979 381.688 69.0312C381.688 68.625 381.552 68.2969 381.281 68.0469C381.021 67.7865 380.667 67.5781 380.219 67.4219C379.771 67.2552 379.255 67.125 378.672 67.0312C378.099 66.9375 377.495 66.849 376.859 66.7656C376.047 66.651 375.24 66.5156 374.438 66.3594C373.635 66.2031 372.901 65.9688 372.234 65.6562C371.578 65.3438 371.047 64.9271 370.641 64.4062C370.245 63.8854 370.047 63.1979 370.047 62.3438C370.047 61.6146 370.229 60.9844 370.594 60.4531C370.969 59.9219 371.464 59.4792 372.078 59.125C372.703 58.7708 373.432 58.5104 374.266 58.3438C375.099 58.1771 375.964 58.0938 376.859 58.0938C378.141 58.0938 379.286 58.2448 380.297 58.5469C381.307 58.8385 382.219 59.2604 383.031 59.8125L382.172 61.4844C381.339 60.901 380.495 60.4948 379.641 60.2656C378.786 60.026 377.859 59.9062 376.859 59.9062C376.411 59.9062 375.911 59.9479 375.359 60.0312C374.818 60.1042 374.312 60.2396 373.844 60.4375C373.375 60.625 372.979 60.875 372.656 61.1875C372.344 61.4896 372.188 61.875 372.188 62.3438C372.188 62.75 372.318 63.0781 372.578 63.3281C372.849 63.5677 373.208 63.7708 373.656 63.9375C374.104 64.0938 374.615 64.2188 375.188 64.3125C375.771 64.4062 376.38 64.4948 377.016 64.5781C377.807 64.6927 378.604 64.8281 379.406 64.9844C380.219 65.1406 380.953 65.3698 381.609 65.6719C382.276 65.974 382.812 66.3854 383.219 66.9062C383.625 67.4271 383.828 68.1146 383.828 68.9688ZM419.125 58.4375C419.125 60.4062 418.51 61.8698 417.281 62.8281C416.052 63.7865 414.328 64.2656 412.109 64.2656H407.5V73H405.359V52.6094H412.078C414.318 52.6094 416.052 53.099 417.281 54.0781C418.51 55.0469 419.125 56.5 419.125 58.4375ZM416.984 58.4375C416.984 57.0312 416.542 56.0156 415.656 55.3906C414.771 54.7552 413.589 54.4375 412.109 54.4375H407.5V62.4375H412.109C413.589 62.4375 414.771 62.125 415.656 61.5C416.542 60.8646 416.984 59.8438 416.984 58.4375ZM435.828 60.4844C435.057 60.099 434.141 59.9062 433.078 59.9062C432.203 59.9062 431.422 60.0938 430.734 60.4688C430.047 60.8438 429.464 61.3385 428.984 61.9531C428.505 62.5573 428.135 63.2552 427.875 64.0469C427.625 64.8281 427.5 65.6354 427.5 66.4688V71.1719H430.797V73H422.062V71.1719H425.359V60.2656H422.062V58.4375H427.5V62.0938C428.479 59.4271 430.339 58.0938 433.078 58.0938C433.818 58.0938 434.458 58.1406 435 58.2344C435.552 58.3281 436.062 58.4948 436.531 58.7344L435.828 60.4844ZM454.469 65.7656C454.469 66.901 454.286 67.9323 453.922 68.8594C453.568 69.7865 453.052 70.5833 452.375 71.25C451.708 71.9062 450.906 72.4219 449.969 72.7969C449.031 73.1719 447.984 73.3594 446.828 73.3594C445.693 73.3594 444.656 73.1719 443.719 72.7969C442.781 72.4219 441.974 71.9062 441.297 71.25C440.63 70.5833 440.115 69.7865 439.75 68.8594C439.396 67.9323 439.219 66.901 439.219 65.7656C439.219 64.6615 439.396 63.6354 439.75 62.6875C440.115 61.7292 440.63 60.9167 441.297 60.25C441.974 59.5729 442.781 59.0469 443.719 58.6719C444.656 58.2865 445.693 58.0938 446.828 58.0938C447.984 58.0938 449.031 58.2865 449.969 58.6719C450.906 59.0469 451.708 59.5729 452.375 60.25C453.052 60.9167 453.568 61.7292 453.922 62.6875C454.286 63.6354 454.469 64.6615 454.469 65.7656ZM452.328 65.7656C452.328 64.9323 452.203 64.1667 451.953 63.4688C451.714 62.7604 451.354 62.1406 450.875 61.6094C450.396 61.0781 449.812 60.6615 449.125 60.3594C448.448 60.0573 447.682 59.9062 446.828 59.9062C445.974 59.9062 445.203 60.0573 444.516 60.3594C443.839 60.6615 443.266 61.0781 442.797 61.6094C442.328 62.1406 441.969 62.7604 441.719 63.4688C441.479 64.1667 441.359 64.9323 441.359 65.7656C441.359 66.599 441.479 67.3698 441.719 68.0781C441.969 68.776 442.328 69.3802 442.797 69.8906C443.266 70.401 443.839 70.8021 444.516 71.0938C445.203 71.3854 445.974 71.5312 446.828 71.5312C447.682 71.5312 448.448 71.3854 449.125 71.0938C449.812 70.8021 450.396 70.401 450.875 69.8906C451.354 69.3802 451.714 68.776 451.953 68.0781C452.203 67.3698 452.328 66.599 452.328 65.7656Z" fill="black"/>
</svg>
