<svg width="457" height="81" viewBox="0 0 457 81" fill="none" xmlns="http://www.w3.org/2000/svg">
<path d="M9.247 19.832C4.063 18.872 0.287001 15.288 0.287001 11.256C0.287001 6.776 4.575 2.616 10.271 1.528L10.463 2.296C6.047 4.28 3.487 7.736 3.487 11.576C3.487 15.224 5.599 17.592 10.015 18.872C18.911 8.184 30.815 0.952 39.455 0.952C43.999 0.952 47.007 3.128 47.007 6.392C47.007 10.744 42.463 14.712 37.407 14.712C35.487 14.712 34.079 14.264 32.863 13.304C29.279 17.784 22.495 20.472 15.071 20.472C14.239 20.472 13.599 20.472 12.575 20.408C9.631 24.632 7.647 30.072 7.647 33.784C7.647 38.2 10.911 41.08 15.903 41.08C22.559 41.08 29.791 35.384 29.791 30.072C29.791 27.896 28.447 26.552 26.399 26.552C24.223 26.552 22.559 27.704 20.703 30.456L19.935 30.072C21.343 26.552 24.799 23.864 28.063 23.864C30.495 23.864 32.159 25.592 32.159 28.152C32.159 31.224 29.983 34.872 26.207 38.2C22.303 41.592 17.887 43.448 13.663 43.448C7.519 43.448 3.359 39.736 3.359 34.232C3.359 30.2 5.215 25.144 8.287 21.112L9.247 19.832ZM13.343 19.384C14.175 19.448 14.751 19.448 15.455 19.448C22.367 19.448 28.383 17.016 32.095 12.6C31.391 11.704 31.071 10.808 31.071 9.848C31.071 8.568 31.775 7.608 32.799 7.608C33.759 7.608 34.335 8.44 34.335 9.72C34.335 10.744 34.079 11.576 33.503 12.408C34.335 13.176 35.551 13.624 37.087 13.624C40.927 13.624 44.447 10.552 44.447 7.224C44.447 4.28 41.887 2.296 38.111 2.296C33.439 2.296 27.999 4.792 22.367 9.464C18.527 12.664 15.583 15.928 13.343 19.384ZM50.993 29.432L46.897 36.28C46.449 37.048 45.873 38.072 45.425 38.968C44.977 39.864 44.849 40.184 44.849 40.568C44.849 40.952 45.041 41.208 45.425 41.208C46.001 41.208 47.345 40.312 49.201 38.648L49.649 39.416C47.345 41.72 44.593 43.384 42.993 43.384C42.097 43.384 41.457 42.872 41.457 42.104C41.457 41.4 41.841 40.312 42.417 39.224C39.665 41.848 37.169 43.32 35.377 43.32C33.393 43.32 32.177 42.04 32.177 39.928C32.177 36.6 35.121 32.184 39.473 28.856C42.737 26.424 45.873 25.208 49.009 25.208C51.441 25.208 53.297 26.04 53.297 27.128C53.297 27.704 52.785 28.152 52.081 28.152C51.825 28.152 51.505 28.088 51.057 27.896C50.609 27.704 50.225 27.576 49.777 27.384C49.009 27.064 47.921 26.872 46.961 26.872C45.169 26.872 43.377 27.576 41.457 28.984C38.193 31.48 35.441 35.896 35.441 38.648C35.441 39.992 36.209 40.888 37.297 40.888C39.089 40.888 41.457 39.224 43.761 36.344C45.361 34.36 47.345 31.48 48.497 29.432H50.993ZM54.469 43H51.269C52.293 41.528 53.189 40.184 55.173 37.048C57.349 33.656 58.693 31.352 59.845 29.24C60.165 28.536 60.293 28.344 60.293 28.152C60.293 27.896 60.101 27.704 59.845 27.704C59.205 27.704 57.861 28.536 55.877 30.2L55.429 29.496C57.925 27.128 60.485 25.656 61.893 25.656C62.725 25.656 63.237 26.104 63.237 26.872C63.237 27.768 62.789 28.856 61.637 30.648C65.221 27.256 68.549 25.4 71.237 25.4C73.029 25.4 74.437 26.68 74.437 28.344C74.437 30.2 73.413 31.544 69.189 35C65.797 37.752 64.389 39.48 64.389 40.888C64.389 41.464 64.709 41.848 65.221 41.848C65.605 41.848 65.541 41.848 66.949 41.464C67.973 41.144 68.613 41.016 69.061 41.016C69.829 41.016 70.341 41.464 70.341 42.04C70.341 42.744 69.765 43.256 68.997 43.256C68.741 43.256 68.421 43.256 68.101 43.192C67.141 43.064 66.565 43 65.669 43C64.517 43 63.621 43.064 62.789 43.192C62.597 43.192 62.405 43.192 62.277 43.192C61.637 43.192 61.253 42.808 61.253 42.168C61.253 40.76 62.341 39.416 65.797 36.472C69.765 33.08 71.173 31.16 71.173 29.368C71.173 28.28 70.213 27.448 69.061 27.448C67.077 27.448 63.941 29.496 61.317 32.376C60.165 33.656 59.013 35.256 57.733 37.304C57.285 38.072 57.093 38.392 56.197 39.928C55.749 40.824 55.173 41.72 54.725 42.616L54.469 43ZM86.212 37.496L86.724 38.2C84.292 41.208 80.644 43.32 78.02 43.32C75.716 43.32 74.308 41.784 74.308 39.352C74.308 36.152 76.868 32.248 81.028 28.856C83.588 26.872 86.276 25.72 88.388 25.72C89.924 25.72 91.012 26.424 91.012 27.448C91.012 28.216 90.372 28.792 89.668 28.792C89.284 28.792 88.964 28.664 88.708 28.472C88.452 28.28 88.132 28.088 87.876 27.832C87.492 27.576 86.852 27.384 86.34 27.384C85.188 27.384 83.78 28.088 82.372 29.368C79.62 31.736 77.508 35.704 77.508 38.2C77.508 39.736 78.532 40.824 80.068 40.824C81.732 40.824 84.356 39.416 86.212 37.496ZM101.846 37.496L101.974 38.456C98.838 41.528 95.638 43.384 93.27 43.384C91.094 43.384 89.558 41.72 89.558 39.416C89.558 36.344 91.798 32.568 95.51 29.24C98.198 26.872 100.95 25.528 103.126 25.528C104.534 25.528 105.43 26.296 105.43 27.384C105.43 29.112 103.51 30.968 99.67 32.952C97.686 33.976 95.19 35 93.142 35.576C92.822 36.536 92.694 37.176 92.694 37.88C92.694 39.672 93.718 40.824 95.254 40.824C96.79 40.824 98.582 39.928 101.846 37.496ZM93.654 34.296C95.51 33.72 97.174 32.952 98.966 31.928C101.398 30.456 102.422 29.368 102.422 28.152C102.422 27.576 101.91 27.128 101.27 27.128C99.094 27.128 95.894 30.136 93.654 34.296ZM112.615 40.568L112.935 41.016C111.143 42.488 108.519 43.384 105.831 43.384C103.398 43.384 101.862 42.616 101.862 41.4C101.862 40.824 102.374 40.312 103.014 40.312C103.27 40.312 103.334 40.312 104.102 40.632C104.486 40.76 104.742 40.76 104.998 40.76C105.639 40.76 106.471 40.184 107.687 38.904C109.735 36.728 111.719 33.592 113.51 29.688L116.327 23.48C120.039 15.288 123.367 10.616 127.591 7.736C130.343 5.88 133.479 4.856 136.551 4.856C139.047 4.856 140.775 5.816 140.775 7.16C140.775 7.8 140.199 8.312 139.559 8.312C139.175 8.312 138.663 8.184 138.215 7.928L136.807 7.224C135.847 6.776 134.759 6.52 133.799 6.52C131.175 6.52 128.359 8.056 126.119 10.744C125.031 11.96 123.687 14.136 122.279 16.888C121.767 17.912 121.51 18.488 120.423 20.856C119.719 22.264 119.143 23.544 118.503 25.016C115.239 32.056 112.743 35.832 109.479 38.904C108.327 39.928 107.174 40.76 106.343 41.208C107.303 41.592 107.943 41.72 108.775 41.72C110.055 41.72 111.271 41.336 112.615 40.568ZM125.677 40.568L125.997 41.016C124.205 42.488 121.581 43.384 118.893 43.384C116.461 43.384 114.925 42.616 114.925 41.4C114.925 40.824 115.437 40.312 116.077 40.312C116.333 40.312 116.397 40.312 117.165 40.632C117.549 40.76 117.805 40.76 118.061 40.76C118.701 40.76 119.533 40.184 120.749 38.904C122.797 36.728 124.781 33.592 126.573 29.688L129.389 23.48C133.101 15.288 136.429 10.616 140.653 7.736C143.405 5.88 146.541 4.856 149.613 4.856C152.109 4.856 153.837 5.816 153.837 7.16C153.837 7.8 153.261 8.312 152.621 8.312C152.237 8.312 151.725 8.184 151.277 7.928L149.869 7.224C148.909 6.776 147.821 6.52 146.861 6.52C144.237 6.52 141.421 8.056 139.181 10.744C138.093 11.96 136.749 14.136 135.341 16.888C134.829 17.912 134.573 18.488 133.485 20.856C132.781 22.264 132.205 23.544 131.565 25.016C128.301 32.056 125.805 35.832 122.541 38.904C121.389 39.928 120.237 40.76 119.405 41.208C120.365 41.592 121.005 41.72 121.837 41.72C123.117 41.72 124.333 41.336 125.677 40.568ZM149.556 29.432L145.46 36.28C145.012 37.048 144.436 38.072 143.988 38.968C143.54 39.864 143.412 40.184 143.412 40.568C143.412 40.952 143.604 41.208 143.988 41.208C144.564 41.208 145.908 40.312 147.764 38.648L148.212 39.416C145.908 41.72 143.156 43.384 141.556 43.384C140.66 43.384 140.02 42.872 140.02 42.104C140.02 41.4 140.404 40.312 140.98 39.224C138.228 41.848 135.732 43.32 133.94 43.32C131.956 43.32 130.739 42.04 130.739 39.928C130.739 36.6 133.684 32.184 138.036 28.856C141.3 26.424 144.436 25.208 147.572 25.208C150.003 25.208 151.86 26.04 151.86 27.128C151.86 27.704 151.348 28.152 150.644 28.152C150.388 28.152 150.068 28.088 149.62 27.896C149.172 27.704 148.788 27.576 148.34 27.384C147.572 27.064 146.484 26.872 145.524 26.872C143.732 26.872 141.94 27.576 140.02 28.984C136.756 31.48 134.004 35.896 134.004 38.648C134.004 39.992 134.772 40.888 135.86 40.888C137.652 40.888 140.02 39.224 142.324 36.344C143.924 34.36 145.908 31.48 147.06 29.432H149.556ZM153.032 43H149.767C150.279 42.36 151.175 41.016 151.944 39.8L153.288 37.496L158.408 29.112C158.728 28.6 158.792 28.344 158.792 28.216C158.792 28.024 158.664 27.832 158.472 27.832C157.96 27.832 156.552 28.664 154.632 30.072L154.376 30.264L153.992 29.56C156.296 27.448 159.432 25.656 160.712 25.656C161.352 25.656 161.864 26.104 161.864 26.744C161.864 27.384 161.48 28.344 160.712 29.752C162.888 27.448 165.384 25.912 166.984 25.912C168.2 25.912 169.032 26.488 169.032 27.384C169.032 28.088 168.583 28.664 168.008 28.664C167.816 28.664 167.56 28.6 167.24 28.472L166.792 28.216C166.472 28.088 166.088 28.024 165.768 28.024C163.592 28.024 160.776 30.264 157.96 34.424C156.168 36.984 153.992 40.696 153.032 43ZM177.596 37.496L177.724 38.456C174.588 41.528 171.388 43.384 169.02 43.384C166.844 43.384 165.308 41.72 165.308 39.416C165.308 36.344 167.548 32.568 171.26 29.24C173.948 26.872 176.7 25.528 178.876 25.528C180.284 25.528 181.18 26.296 181.18 27.384C181.18 29.112 179.26 30.968 175.42 32.952C173.436 33.976 170.94 35 168.892 35.576C168.572 36.536 168.444 37.176 168.444 37.88C168.444 39.672 169.468 40.824 171.004 40.824C172.54 40.824 174.332 39.928 177.596 37.496ZM169.404 34.296C171.26 33.72 172.924 32.952 174.716 31.928C177.148 30.456 178.172 29.368 178.172 28.152C178.172 27.576 177.66 27.128 177.02 27.128C174.844 27.128 171.644 30.136 169.404 34.296ZM197.26 24.824C196.237 24.632 195.661 24.12 195.661 23.416C195.661 22.84 196.109 22.392 196.621 22.392C197.517 22.392 198.285 23.352 198.285 24.44C198.285 26.488 196.301 28.152 193.805 28.152C193.421 28.152 192.781 28.152 192.141 28.024C191.693 28.024 191.309 27.96 191.181 27.96L190.541 27.832C190.22 27.768 189.901 27.704 189.645 27.704C188.685 27.704 187.917 28.344 187.917 29.24C187.917 29.88 188.493 30.776 189.645 32.312C191.501 34.616 192.013 35.704 192.013 37.304C192.013 40.696 188.749 43.64 184.973 43.64C181.773 43.64 179.532 41.784 179.532 39.16C179.532 36.92 181.197 35.256 183.437 35.256C185.036 35.256 186.189 36.216 186.189 37.56C186.189 38.648 185.293 39.544 184.333 39.544C183.629 39.544 183.117 39.032 183.117 38.328C183.117 38.2 183.117 38.008 183.181 37.816L183.373 37.432C183.373 37.304 183.437 37.24 183.437 37.112C183.437 36.856 183.181 36.664 182.797 36.664C181.645 36.664 180.62 37.816 180.62 39.16C180.62 41.016 182.477 42.488 184.845 42.488C187.469 42.488 189.325 40.696 189.325 38.264C189.325 37.176 189.005 36.216 188.109 34.872C186.637 32.696 186.317 31.928 186.317 30.84C186.317 28.088 188.621 25.912 191.629 25.912C192.077 25.912 192.525 25.976 192.973 25.976C194.125 26.168 195.085 26.232 195.405 26.232C196.429 26.232 197.069 25.72 197.26 24.824ZM206.962 37.496L207.474 38.2C205.042 41.208 201.394 43.32 198.77 43.32C196.466 43.32 195.058 41.784 195.058 39.352C195.058 36.152 197.618 32.248 201.778 28.856C204.338 26.872 207.026 25.72 209.138 25.72C210.674 25.72 211.762 26.424 211.762 27.448C211.762 28.216 211.122 28.792 210.418 28.792C210.034 28.792 209.714 28.664 209.458 28.472C209.202 28.28 208.882 28.088 208.626 27.832C208.242 27.576 207.602 27.384 207.09 27.384C205.938 27.384 204.53 28.088 203.122 29.368C200.37 31.736 198.258 35.704 198.258 38.2C198.258 39.736 199.282 40.824 200.818 40.824C202.482 40.824 205.106 39.416 206.962 37.496ZM228.868 29.432L224.772 36.28C224.324 37.048 223.748 38.072 223.3 38.968C222.852 39.864 222.724 40.184 222.724 40.568C222.724 40.952 222.916 41.208 223.3 41.208C223.876 41.208 225.22 40.312 227.076 38.648L227.524 39.416C225.22 41.72 222.468 43.384 220.868 43.384C219.972 43.384 219.332 42.872 219.332 42.104C219.332 41.4 219.716 40.312 220.292 39.224C217.54 41.848 215.044 43.32 213.252 43.32C211.268 43.32 210.052 42.04 210.052 39.928C210.052 36.6 212.996 32.184 217.348 28.856C220.612 26.424 223.748 25.208 226.884 25.208C229.316 25.208 231.172 26.04 231.172 27.128C231.172 27.704 230.66 28.152 229.956 28.152C229.7 28.152 229.38 28.088 228.932 27.896C228.484 27.704 228.1 27.576 227.652 27.384C226.884 27.064 225.796 26.872 224.836 26.872C223.044 26.872 221.252 27.576 219.332 28.984C216.068 31.48 213.316 35.896 213.316 38.648C213.316 39.992 214.084 40.888 215.172 40.888C216.964 40.888 219.332 39.224 221.636 36.344C223.236 34.36 225.22 31.48 226.372 29.432H228.868ZM266.124 15.288C266.892 15.16 267.596 15.032 268.428 15.032C272.268 15.032 275.66 17.336 276.748 20.536L275.852 20.856C274.572 17.912 271.628 15.992 268.364 15.992C267.852 15.992 267.404 16.056 266.956 16.184L268.364 17.592L269.772 19.064C273.676 23.096 275.212 26.168 275.212 29.752C275.212 33.72 272.844 37.816 269.068 40.504C265.996 42.552 262.348 43.64 258.06 43.64C249.74 43.64 243.788 39.032 243.788 32.632C243.788 27.448 247.884 23.352 253.068 23.352C255.052 23.352 256.908 23.864 258.636 24.76C258.956 21.112 260.364 18.488 262.924 16.696C262.028 15.16 261.516 13.624 261.516 11.96C261.516 6.264 268.3 0.887997 275.468 0.887997C280.716 0.887997 284.684 3.96 284.684 7.992C284.684 11.64 281.484 14.328 277.132 14.328C275.916 14.328 274.892 14.2 273.868 13.816L274.124 12.984C274.956 13.112 275.532 13.176 276.236 13.176C279.436 13.176 281.484 11.32 281.484 8.44C281.484 4.92 278.22 2.296 273.74 2.296C268.556 2.296 263.948 6.2 263.948 10.616C263.948 12.344 264.524 13.56 265.996 15.16L266.124 15.288ZM263.564 17.528C261.068 19.064 259.98 21.304 259.596 25.336C261.324 26.616 262.284 27.96 262.284 29.304C262.284 30.264 261.644 30.968 260.812 30.968C259.596 30.968 258.764 29.496 258.508 26.808C257.228 25.272 255.116 24.376 252.876 24.376C249.036 24.376 246.284 27.448 246.284 31.608C246.284 37.752 251.788 42.616 258.7 42.616C266.188 42.616 272.204 37.624 272.204 31.48C272.204 29.048 271.372 27.128 269.004 24.248L266.188 20.728C264.652 18.808 264.204 18.296 263.564 17.528ZM288.9 37.496L289.412 38.2C286.98 41.208 283.332 43.32 280.708 43.32C278.404 43.32 276.995 41.784 276.995 39.352C276.995 36.152 279.556 32.248 283.716 28.856C286.276 26.872 288.964 25.72 291.076 25.72C292.612 25.72 293.7 26.424 293.7 27.448C293.7 28.216 293.06 28.792 292.356 28.792C291.972 28.792 291.652 28.664 291.396 28.472C291.14 28.28 290.82 28.088 290.564 27.832C290.18 27.576 289.54 27.384 289.028 27.384C287.876 27.384 286.468 28.088 285.06 29.368C282.308 31.736 280.196 35.704 280.196 38.2C280.196 39.736 281.22 40.824 282.756 40.824C284.42 40.824 287.044 39.416 288.9 37.496ZM293.782 43H290.517C291.029 42.36 291.925 41.016 292.694 39.8L294.038 37.496L299.158 29.112C299.478 28.6 299.542 28.344 299.542 28.216C299.542 28.024 299.414 27.832 299.222 27.832C298.71 27.832 297.302 28.664 295.382 30.072L295.126 30.264L294.742 29.56C297.046 27.448 300.182 25.656 301.462 25.656C302.102 25.656 302.614 26.104 302.614 26.744C302.614 27.384 302.23 28.344 301.462 29.752C303.638 27.448 306.134 25.912 307.734 25.912C308.95 25.912 309.782 26.488 309.782 27.384C309.782 28.088 309.333 28.664 308.758 28.664C308.566 28.664 308.31 28.6 307.99 28.472L307.542 28.216C307.222 28.088 306.838 28.024 306.518 28.024C304.342 28.024 301.526 30.264 298.71 34.424C296.918 36.984 294.742 40.696 293.782 43ZM314.988 39.224C312.428 41.656 309.804 43.256 308.396 43.256C307.436 43.256 306.86 42.744 306.86 41.848C306.86 41.08 307.18 40.312 308.268 38.456L313.516 29.816C314.476 28.216 314.476 28.152 314.476 27.96C314.476 27.704 314.348 27.576 314.028 27.576C313.388 27.576 311.66 28.6 309.932 30.008L309.548 29.24C312.3 26.936 314.732 25.592 316.076 25.592C316.908 25.592 317.484 26.104 317.484 26.936C317.484 27.576 317.228 28.152 316.204 29.816L311.34 37.816C310.508 39.224 309.996 40.184 309.996 40.568C309.996 40.824 310.252 41.016 310.508 41.016C311.212 41.016 312.428 40.248 314.284 38.712L314.604 38.456L314.988 39.224ZM319.852 16.952C319.852 15.736 320.812 14.648 321.836 14.648C322.604 14.648 323.052 15.16 323.052 15.928C323.052 17.016 322.028 18.232 321.068 18.232C320.364 18.232 319.852 17.72 319.852 16.952ZM313.334 61.368C311.158 62.968 307.574 64.056 304.502 64.056C301.494 64.056 299.83 63.352 299.83 62.136C299.83 61.368 300.47 60.792 301.238 60.792C301.558 60.792 301.942 60.92 302.326 61.048C303.03 61.368 303.158 61.368 303.414 61.368C304.054 61.368 305.142 60.728 305.974 59.832C307.19 58.488 308.342 56.76 310.326 53.368C311.734 51 313.078 48.504 315.574 43.768C318.134 38.904 319.286 36.664 320.694 34.296C326.774 23.864 331.638 19.128 336.182 19.128C337.526 19.128 338.358 19.704 338.358 20.664C338.358 21.432 337.718 22.008 336.95 22.008C336.694 22.008 336.31 22.008 335.926 21.88C334.262 21.432 334.198 21.432 333.75 21.432C332.15 21.432 330.55 22.456 328.758 24.632C327.35 26.36 326.134 28.28 325.11 30.328C328.054 27.256 331.062 25.528 333.494 25.528C335.67 25.528 336.886 26.872 336.886 29.112C336.886 32.248 334.582 36.536 331.062 39.736C328.566 42.104 325.814 43.384 323.318 43.384C321.782 43.384 320.758 42.552 320.758 41.272C320.758 40.44 321.27 39.928 322.038 39.928C322.486 39.928 322.806 40.184 322.87 40.568L322.934 41.016C322.998 41.784 323.51 42.232 324.342 42.232C325.75 42.232 327.862 40.952 329.654 38.968C332.022 36.344 333.814 32.44 333.814 30.008C333.814 28.728 332.918 27.64 331.766 27.64C329.718 27.64 326.774 29.624 324.534 32.376C323.574 33.592 322.55 35.192 321.59 36.92C320.822 38.328 319.926 40.12 318.454 43.448C315.254 50.744 313.206 54.072 309.558 57.912C307.574 60.088 306.102 61.368 304.822 62.008C305.59 62.264 306.166 62.328 307.126 62.328C309.046 62.328 311.094 61.752 312.886 60.728L313.334 61.368ZM345.368 31.736L345.176 31.544L344.728 31.032C343 29.112 342.68 28.728 342.68 27.896C342.68 26.808 343.768 25.976 345.24 25.976C345.944 25.976 346.392 26.04 347.992 26.232H348.184L348.312 26.104C352.664 17.784 356.888 13.624 360.856 13.624C361.88 13.624 362.456 13.944 362.456 14.456C362.456 14.904 362.072 15.288 361.56 15.288C361.432 15.288 361.176 15.224 360.92 15.16C360.28 15.032 360.152 15.032 359.832 15.032C358.616 15.032 357.208 15.672 355.992 16.824C354.135 18.68 352.6 21.304 350.616 26.424L350.488 26.552C351.192 26.68 351.64 26.68 352.216 26.68C354.072 26.68 354.904 26.168 355.032 24.952V24.44C355.096 23.864 355.48 23.544 355.992 23.544C356.696 23.544 357.144 23.992 357.144 24.76C357.144 26.488 355.288 27.64 352.472 27.64C351.704 27.64 350.936 27.576 350.168 27.448C350.04 27.832 349.848 28.152 349.592 28.984C348.888 30.776 348.312 32.12 347.672 33.208C348.376 34.36 348.696 35.448 348.696 36.6C348.696 40.696 345.112 43.384 339.799 43.384C337.047 43.384 335.319 42.616 335.319 41.4C335.319 40.824 335.703 40.44 336.279 40.44C336.343 40.44 336.407 40.44 336.471 40.504L336.855 40.632C337.047 40.696 337.239 40.696 337.431 40.696C338.136 40.696 338.84 40.376 339.799 39.544C341.08 38.456 343.256 35.512 344.408 33.4L345.24 31.928L345.368 31.736ZM345.816 30.776L345.944 30.648C346.328 29.88 346.648 29.24 346.968 28.6C347.416 27.768 347.544 27.448 347.736 27.064C347.352 27.064 347.032 27 346.712 27C345.496 27 344.728 27.64 344.728 28.6C344.728 29.112 344.984 29.688 345.496 30.328L345.752 30.648C345.752 30.648 345.816 30.712 345.816 30.776ZM347.16 34.168C344.92 38.072 341.72 40.632 338.456 41.272C339.672 41.72 340.504 41.848 341.528 41.848C345.048 41.848 347.8 39.48 347.8 36.536C347.8 35.64 347.608 35 347.16 34.168ZM388.187 15.288C388.955 15.16 389.659 15.032 390.491 15.032C394.331 15.032 397.722 17.336 398.811 20.536L397.915 20.856C396.635 17.912 393.691 15.992 390.427 15.992C389.915 15.992 389.467 16.056 389.019 16.184L390.427 17.592L391.835 19.064C395.739 23.096 397.275 26.168 397.275 29.752C397.275 33.72 394.907 37.816 391.131 40.504C388.059 42.552 384.411 43.64 380.123 43.64C371.803 43.64 365.851 39.032 365.851 32.632C365.851 27.448 369.947 23.352 375.131 23.352C377.115 23.352 378.971 23.864 380.699 24.76C381.019 21.112 382.427 18.488 384.987 16.696C384.091 15.16 383.579 13.624 383.579 11.96C383.579 6.264 390.363 0.887997 397.531 0.887997C402.779 0.887997 406.747 3.96 406.747 7.992C406.747 11.64 403.547 14.328 399.194 14.328C397.979 14.328 396.955 14.2 395.931 13.816L396.187 12.984C397.019 13.112 397.595 13.176 398.299 13.176C401.499 13.176 403.547 11.32 403.547 8.44C403.547 4.92 400.283 2.296 395.803 2.296C390.619 2.296 386.011 6.2 386.011 10.616C386.011 12.344 386.587 13.56 388.059 15.16L388.187 15.288ZM385.627 17.528C383.131 19.064 382.043 21.304 381.659 25.336C383.387 26.616 384.347 27.96 384.347 29.304C384.347 30.264 383.707 30.968 382.875 30.968C381.659 30.968 380.827 29.496 380.571 26.808C379.291 25.272 377.179 24.376 374.939 24.376C371.099 24.376 368.347 27.448 368.347 31.608C368.347 37.752 373.851 42.616 380.763 42.616C388.251 42.616 394.267 37.624 394.267 31.48C394.267 29.048 393.435 27.128 391.067 24.248L388.251 20.728C386.715 18.808 386.267 18.296 385.627 17.528ZM406.93 31.736L406.738 31.544L406.29 31.032C404.562 29.112 404.242 28.728 404.242 27.896C404.242 26.808 405.33 25.976 406.802 25.976C407.506 25.976 407.954 26.04 409.554 26.232H409.746L409.874 26.104C414.226 17.784 418.45 13.624 422.418 13.624C423.442 13.624 424.018 13.944 424.018 14.456C424.018 14.904 423.634 15.288 423.122 15.288C422.994 15.288 422.738 15.224 422.482 15.16C421.842 15.032 421.714 15.032 421.394 15.032C420.178 15.032 418.77 15.672 417.554 16.824C415.698 18.68 414.162 21.304 412.178 26.424L412.05 26.552C412.754 26.68 413.202 26.68 413.778 26.68C415.634 26.68 416.466 26.168 416.594 24.952V24.44C416.658 23.864 417.042 23.544 417.554 23.544C418.258 23.544 418.706 23.992 418.706 24.76C418.706 26.488 416.85 27.64 414.034 27.64C413.266 27.64 412.498 27.576 411.73 27.448C411.602 27.832 411.41 28.152 411.154 28.984C410.45 30.776 409.874 32.12 409.234 33.208C409.938 34.36 410.258 35.448 410.258 36.6C410.258 40.696 406.674 43.384 401.362 43.384C398.61 43.384 396.882 42.616 396.882 41.4C396.882 40.824 397.266 40.44 397.842 40.44C397.906 40.44 397.97 40.44 398.034 40.504L398.418 40.632C398.61 40.696 398.802 40.696 398.994 40.696C399.698 40.696 400.402 40.376 401.362 39.544C402.642 38.456 404.818 35.512 405.97 33.4L406.802 31.928L406.93 31.736ZM407.378 30.776L407.506 30.648C407.89 29.88 408.21 29.24 408.53 28.6C408.978 27.768 409.106 27.448 409.298 27.064C408.914 27.064 408.594 27 408.274 27C407.058 27 406.29 27.64 406.29 28.6C406.29 29.112 406.546 29.688 407.058 30.328L407.314 30.648C407.314 30.648 407.378 30.712 407.378 30.776ZM408.722 34.168C406.482 38.072 403.282 40.632 400.018 41.272C401.234 41.72 402.066 41.848 403.09 41.848C406.61 41.848 409.362 39.48 409.362 36.536C409.362 35.64 409.17 35 408.722 34.168ZM432.353 38.712L432.737 39.416C430.305 41.72 427.425 43.384 425.953 43.384C425.057 43.384 424.481 42.808 424.481 41.912C424.481 41.144 424.737 40.376 425.505 39.032C422.753 41.72 419.809 43.32 417.569 43.32C415.585 43.32 414.177 41.848 414.177 39.8C414.177 36.792 416.801 32.76 420.769 29.496C423.841 27 427.233 25.528 429.729 25.528C431.137 25.528 431.905 25.976 431.905 26.808C431.905 27.448 431.457 27.896 430.817 27.896C430.497 27.896 430.113 27.832 429.601 27.64C428.513 27.256 428.257 27.256 427.681 27.256C425.889 27.256 424.161 28.152 422.049 30.264C419.361 32.888 417.505 36.216 417.505 38.392C417.505 39.864 418.465 41.016 419.681 41.016C421.729 41.016 424.225 39.352 426.657 36.472C427.617 35.32 428.513 33.976 429.921 31.8C430.433 30.968 430.753 30.456 431.713 28.856C432.353 27.896 433.057 26.744 433.633 25.72C439.393 16.376 442.209 12.152 444.833 9.272C447.201 6.648 450.017 5.24 452.897 5.24C454.881 5.24 456.225 6.072 456.225 7.288C456.225 7.992 455.713 8.568 454.945 8.568C454.625 8.568 454.241 8.44 453.921 8.184L452.833 7.48C452.193 7.096 451.489 6.84 450.785 6.84C449.441 6.84 447.905 7.736 446.753 9.144C445.665 10.488 444.129 12.728 442.273 15.8L429.217 37.688L428.769 38.392C428.129 39.48 427.873 40.056 427.873 40.504C427.873 40.824 428.065 41.08 428.385 41.08C428.961 41.08 430.049 40.44 432.033 38.968L432.353 38.712ZM31.4375 69.6562C30.9062 71.4062 30.0365 72.7969 28.8281 73.8281C27.6198 74.849 26.099 75.3594 24.2656 75.3594C22.8385 75.3594 21.6302 75.0677 20.6406 74.4844C19.651 73.8906 18.8385 73.1094 18.2031 72.1406C17.5781 71.1719 17.125 70.0521 16.8438 68.7812C16.5729 67.5104 16.4375 66.1927 16.4375 64.8281C16.4375 63.4635 16.5729 62.1458 16.8438 60.875C17.125 59.6042 17.5781 58.4792 18.2031 57.5C18.8385 56.5208 19.651 55.7396 20.6406 55.1562C21.6302 54.5625 22.8385 54.2656 24.2656 54.2656C25.526 54.2656 26.6042 54.4896 27.5 54.9375C28.3958 55.3854 29.0573 56.0677 29.4844 56.9844V54.6094H31.3125V61.2969H29.4844C29.4844 60.5781 29.3438 59.901 29.0625 59.2656C28.7917 58.6198 28.4219 58.0625 27.9531 57.5938C27.4844 57.125 26.9271 56.7604 26.2812 56.5C25.6458 56.2292 24.974 56.0938 24.2656 56.0938C23.1615 56.0938 22.2448 56.3542 21.5156 56.875C20.7969 57.3958 20.2188 58.0781 19.7812 58.9219C19.3438 59.7656 19.0312 60.7031 18.8438 61.7344C18.6667 62.7656 18.5781 63.7969 18.5781 64.8281C18.5781 65.849 18.6667 66.8802 18.8438 67.9219C19.0312 68.9531 19.3438 69.8854 19.7812 70.7188C20.2188 71.5417 20.7969 72.2188 21.5156 72.75C22.2448 73.2708 23.1615 73.5312 24.2656 73.5312C26.8073 73.5312 28.5781 71.9948 29.5781 68.9219L31.4375 69.6562ZM34.1875 71.0625C34.1875 70.1458 34.4167 69.3802 34.875 68.7656C35.3333 68.1406 35.9323 67.651 36.6719 67.2969C37.4219 66.9323 38.276 66.6719 39.2344 66.5156C40.2031 66.349 41.1875 66.2656 42.1875 66.2656C42.5729 66.2656 42.9167 66.2708 43.2188 66.2812C43.5312 66.2917 43.8229 66.3073 44.0938 66.3281C44.375 66.349 44.6562 66.375 44.9375 66.4062C45.2188 66.4375 45.526 66.474 45.8594 66.5156V65.4688C45.8594 64.7604 45.7031 64.1771 45.3906 63.7188C45.0885 63.2604 44.7135 62.901 44.2656 62.6406C43.8177 62.3698 43.349 62.1823 42.8594 62.0781C42.3698 61.9635 41.9531 61.9062 41.6094 61.9062C40.526 61.9062 39.526 62.0521 38.6094 62.3438C37.6927 62.6354 36.8385 63.026 36.0469 63.5156L35.0781 61.9062C35.9531 61.375 36.9323 60.9427 38.0156 60.6094C39.1094 60.2656 40.3073 60.0938 41.6094 60.0938C42.401 60.0938 43.1771 60.1979 43.9375 60.4062C44.7083 60.6042 45.3958 60.9167 46 61.3438C46.6146 61.7604 47.1042 62.3125 47.4688 63C47.8333 63.6875 48.0156 64.5104 48.0156 65.4688V75H45.8594V72.5625C45.4844 73.0312 45.0573 73.4427 44.5781 73.7969C44.1094 74.151 43.6146 74.4427 43.0938 74.6719C42.5729 74.8906 42.0521 75.0573 41.5312 75.1719C41.0104 75.2969 40.5156 75.3594 40.0469 75.3594C38.1198 75.3594 36.6615 74.9896 35.6719 74.25C34.6823 73.5104 34.1875 72.4479 34.1875 71.0625ZM40.0469 73.5312C40.9427 73.5312 41.7448 73.401 42.4531 73.1406C43.1719 72.8698 43.7812 72.5365 44.2812 72.1406C44.7812 71.7448 45.1667 71.3229 45.4375 70.875C45.7188 70.4271 45.8594 70.0208 45.8594 69.6562V68.2812C45.1615 68.1771 44.4896 68.1198 43.8438 68.1094C43.2083 68.099 42.6562 68.0938 42.1875 68.0938C41.4167 68.0938 40.6719 68.1458 39.9531 68.25C39.2448 68.3542 38.625 68.526 38.0938 68.7656C37.5625 68.9948 37.1354 69.2969 36.8125 69.6719C36.4896 70.0469 36.3281 70.5104 36.3281 71.0625C36.3281 71.6771 36.625 72.2448 37.2188 72.7656C37.8229 73.276 38.7656 73.5312 40.0469 73.5312ZM65.4844 75H63.3281V66.0156C63.3281 64.7135 63.0469 63.7031 62.4844 62.9844C61.9219 62.2656 61.0104 61.9062 59.75 61.9062C58.9583 61.9062 58.2396 62.0885 57.5938 62.4531C56.9583 62.8177 56.4167 63.3073 55.9688 63.9219C55.5208 64.526 55.1771 65.224 54.9375 66.0156C54.7083 66.7969 54.5938 67.6146 54.5938 68.4688V75H52.4531V60.4375H54.5938V64.0938C55.625 61.4271 57.4635 60.0938 60.1094 60.0938C63.6927 60.0938 65.4844 62.0677 65.4844 66.0156V75ZM83.1719 72.2188C82.5573 73.1771 81.7135 73.9427 80.6406 74.5156C79.5781 75.0781 78.3125 75.3594 76.8438 75.3594C75.7083 75.3594 74.6667 75.1719 73.7188 74.7969C72.7708 74.4219 71.9583 73.901 71.2812 73.2344C70.6146 72.5573 70.0938 71.7552 69.7188 70.8281C69.3438 69.901 69.1562 68.8698 69.1562 67.7344C69.1562 66.6302 69.3281 65.6094 69.6719 64.6719C70.0156 63.724 70.5052 62.9167 71.1406 62.25C71.776 61.5729 72.5521 61.0469 73.4688 60.6719C74.3958 60.2865 75.4219 60.0938 76.5469 60.0938C76.9948 60.0938 77.4531 60.1458 77.9219 60.25C78.3906 60.3542 78.8333 60.5156 79.25 60.7344C79.6667 60.9427 80.0417 61.1979 80.375 61.5C80.7083 61.7917 80.9583 62.1406 81.125 62.5469V60.4375H83.0469V66.2656H81.125C81.125 65.6198 81.0052 65.0312 80.7656 64.5C80.5365 63.9688 80.2188 63.5104 79.8125 63.125C79.4062 62.7396 78.9219 62.4427 78.3594 62.2344C77.7969 62.0156 77.1927 61.9062 76.5469 61.9062C75.6719 61.9062 74.9062 62.0573 74.25 62.3594C73.6042 62.6615 73.0625 63.0729 72.625 63.5938C72.1875 64.1146 71.8542 64.7292 71.625 65.4375C71.4062 66.1354 71.2969 66.901 71.2969 67.7344C71.2969 68.5677 71.4219 69.3385 71.6719 70.0469C71.9323 70.7448 72.3021 71.349 72.7812 71.8594C73.2708 72.3698 73.8542 72.776 74.5312 73.0781C75.2188 73.3802 75.9896 73.5312 76.8438 73.5312C77.9271 73.5312 78.8906 73.3177 79.7344 72.8906C80.5781 72.4635 81.224 71.8958 81.6719 71.1875L83.1719 72.2188ZM88.7656 68.4688C88.9219 70.0104 89.4844 71.2396 90.4531 72.1562C91.4219 73.0729 92.6823 73.5312 94.2344 73.5312C95.3281 73.5312 96.3021 73.3073 97.1562 72.8594C98.0104 72.4115 98.651 71.8542 99.0781 71.1875L100.578 72.2188C99.849 73.2396 98.9792 74.0208 97.9688 74.5625C96.9583 75.0938 95.7135 75.3594 94.2344 75.3594C93.1094 75.3594 92.0781 75.1719 91.1406 74.7969C90.2031 74.4219 89.3906 73.901 88.7031 73.2344C88.026 72.5573 87.5 71.7552 87.125 70.8281C86.75 69.901 86.5625 68.8698 86.5625 67.7344C86.5625 66.6302 86.7292 65.6146 87.0625 64.6875C87.4062 63.75 87.8958 62.9427 88.5312 62.2656C89.1771 61.5781 89.9583 61.0469 90.875 60.6719C91.7917 60.2865 92.8177 60.0938 93.9531 60.0938C95.1927 60.0938 96.276 60.3021 97.2031 60.7188C98.1302 61.1354 98.901 61.7135 99.5156 62.4531C100.141 63.1823 100.599 64.0573 100.891 65.0781C101.193 66.099 101.344 67.2292 101.344 68.4688H88.7656ZM99.0781 66.6406C98.8385 65.0469 98.2604 63.8594 97.3438 63.0781C96.4271 62.2969 95.2969 61.9062 93.9531 61.9062C93.2656 61.9062 92.6302 62.0208 92.0469 62.25C91.4635 62.4688 90.9479 62.7865 90.5 63.2031C90.0521 63.6198 89.6771 64.125 89.375 64.7188C89.0729 65.3021 88.8802 65.9427 88.7969 66.6406H99.0781ZM115.734 75H107V73.1719H110.297V56.4375H107V54.6094H112.453V73.1719H115.734V75ZM133.203 75H124.469V73.1719H127.766V56.4375H124.469V54.6094H129.922V73.1719H133.203V75ZM139 71.0625C139 70.1458 139.229 69.3802 139.688 68.7656C140.146 68.1406 140.745 67.651 141.484 67.2969C142.234 66.9323 143.089 66.6719 144.047 66.5156C145.016 66.349 146 66.2656 147 66.2656C147.385 66.2656 147.729 66.2708 148.031 66.2812C148.344 66.2917 148.635 66.3073 148.906 66.3281C149.188 66.349 149.469 66.375 149.75 66.4062C150.031 66.4375 150.339 66.474 150.672 66.5156V65.4688C150.672 64.7604 150.516 64.1771 150.203 63.7188C149.901 63.2604 149.526 62.901 149.078 62.6406C148.63 62.3698 148.161 62.1823 147.672 62.0781C147.182 61.9635 146.766 61.9062 146.422 61.9062C145.339 61.9062 144.339 62.0521 143.422 62.3438C142.505 62.6354 141.651 63.026 140.859 63.5156L139.891 61.9062C140.766 61.375 141.745 60.9427 142.828 60.6094C143.922 60.2656 145.12 60.0938 146.422 60.0938C147.214 60.0938 147.99 60.1979 148.75 60.4062C149.521 60.6042 150.208 60.9167 150.812 61.3438C151.427 61.7604 151.917 62.3125 152.281 63C152.646 63.6875 152.828 64.5104 152.828 65.4688V75H150.672V72.5625C150.297 73.0312 149.87 73.4427 149.391 73.7969C148.922 74.151 148.427 74.4427 147.906 74.6719C147.385 74.8906 146.865 75.0573 146.344 75.1719C145.823 75.2969 145.328 75.3594 144.859 75.3594C142.932 75.3594 141.474 74.9896 140.484 74.25C139.495 73.5104 139 72.4479 139 71.0625ZM144.859 73.5312C145.755 73.5312 146.557 73.401 147.266 73.1406C147.984 72.8698 148.594 72.5365 149.094 72.1406C149.594 71.7448 149.979 71.3229 150.25 70.875C150.531 70.4271 150.672 70.0208 150.672 69.6562V68.2812C149.974 68.1771 149.302 68.1198 148.656 68.1094C148.021 68.099 147.469 68.0938 147 68.0938C146.229 68.0938 145.484 68.1458 144.766 68.25C144.057 68.3542 143.438 68.526 142.906 68.7656C142.375 68.9948 141.948 69.2969 141.625 69.6719C141.302 70.0469 141.141 70.5104 141.141 71.0625C141.141 71.6771 141.438 72.2448 142.031 72.7656C142.635 73.276 143.578 73.5312 144.859 73.5312ZM170.266 62.4844C169.495 62.099 168.578 61.9062 167.516 61.9062C166.641 61.9062 165.859 62.0938 165.172 62.4688C164.484 62.8438 163.901 63.3385 163.422 63.9531C162.943 64.5573 162.573 65.2552 162.312 66.0469C162.062 66.8281 161.938 67.6354 161.938 68.4688V73.1719H165.234V75H156.5V73.1719H159.797V62.2656H156.5V60.4375H161.938V64.0938C162.917 61.4271 164.776 60.0938 167.516 60.0938C168.255 60.0938 168.896 60.1406 169.438 60.2344C169.99 60.3281 170.5 60.4948 170.969 60.7344L170.266 62.4844ZM176.109 68.4688C176.266 70.0104 176.828 71.2396 177.797 72.1562C178.766 73.0729 180.026 73.5312 181.578 73.5312C182.672 73.5312 183.646 73.3073 184.5 72.8594C185.354 72.4115 185.995 71.8542 186.422 71.1875L187.922 72.2188C187.193 73.2396 186.323 74.0208 185.312 74.5625C184.302 75.0938 183.057 75.3594 181.578 75.3594C180.453 75.3594 179.422 75.1719 178.484 74.7969C177.547 74.4219 176.734 73.901 176.047 73.2344C175.37 72.5573 174.844 71.7552 174.469 70.8281C174.094 69.901 173.906 68.8698 173.906 67.7344C173.906 66.6302 174.073 65.6146 174.406 64.6875C174.75 63.75 175.24 62.9427 175.875 62.2656C176.521 61.5781 177.302 61.0469 178.219 60.6719C179.135 60.2865 180.161 60.0938 181.297 60.0938C182.536 60.0938 183.62 60.3021 184.547 60.7188C185.474 61.1354 186.245 61.7135 186.859 62.4531C187.484 63.1823 187.943 64.0573 188.234 65.0781C188.536 66.099 188.688 67.2292 188.688 68.4688H176.109ZM186.422 66.6406C186.182 65.0469 185.604 63.8594 184.688 63.0781C183.771 62.2969 182.641 61.9062 181.297 61.9062C180.609 61.9062 179.974 62.0208 179.391 62.25C178.807 62.4688 178.292 62.7865 177.844 63.2031C177.396 63.6198 177.021 64.125 176.719 64.7188C176.417 65.3021 176.224 65.9427 176.141 66.6406H186.422ZM205.609 70.9688C205.609 71.8229 205.396 72.5312 204.969 73.0938C204.542 73.6562 203.99 74.1042 203.312 74.4375C202.646 74.7708 201.896 75.0052 201.062 75.1406C200.24 75.2865 199.432 75.3594 198.641 75.3594C197.318 75.3594 196 75.1667 194.688 74.7812C193.375 74.3958 192.24 73.8906 191.281 73.2656L192.234 71.4219C193.307 72.099 194.365 72.6198 195.406 72.9844C196.448 73.349 197.526 73.5312 198.641 73.5312C201.859 73.5312 203.469 72.6979 203.469 71.0312C203.469 70.625 203.333 70.2969 203.062 70.0469C202.802 69.7865 202.448 69.5781 202 69.4219C201.552 69.2552 201.036 69.125 200.453 69.0312C199.88 68.9375 199.276 68.849 198.641 68.7656C197.828 68.651 197.021 68.5156 196.219 68.3594C195.417 68.2031 194.682 67.9688 194.016 67.6562C193.359 67.3438 192.828 66.9271 192.422 66.4062C192.026 65.8854 191.828 65.1979 191.828 64.3438C191.828 63.6146 192.01 62.9844 192.375 62.4531C192.75 61.9219 193.245 61.4792 193.859 61.125C194.484 60.7708 195.214 60.5104 196.047 60.3438C196.88 60.1771 197.745 60.0938 198.641 60.0938C199.922 60.0938 201.068 60.2448 202.078 60.5469C203.089 60.8385 204 61.2604 204.812 61.8125L203.953 63.4844C203.12 62.901 202.276 62.4948 201.422 62.2656C200.568 62.026 199.641 61.9062 198.641 61.9062C198.193 61.9062 197.693 61.9479 197.141 62.0312C196.599 62.1042 196.094 62.2396 195.625 62.4375C195.156 62.625 194.76 62.875 194.438 63.1875C194.125 63.4896 193.969 63.875 193.969 64.3438C193.969 64.75 194.099 65.0781 194.359 65.3281C194.63 65.5677 194.99 65.7708 195.438 65.9375C195.885 66.0938 196.396 66.2188 196.969 66.3125C197.552 66.4062 198.161 66.4948 198.797 66.5781C199.589 66.6927 200.385 66.8281 201.188 66.9844C202 67.1406 202.734 67.3698 203.391 67.6719C204.057 67.974 204.594 68.3854 205 68.9062C205.406 69.4271 205.609 70.1146 205.609 70.9688ZM222.922 72.2188C222.307 73.1771 221.464 73.9427 220.391 74.5156C219.328 75.0781 218.062 75.3594 216.594 75.3594C215.458 75.3594 214.417 75.1719 213.469 74.7969C212.521 74.4219 211.708 73.901 211.031 73.2344C210.365 72.5573 209.844 71.7552 209.469 70.8281C209.094 69.901 208.906 68.8698 208.906 67.7344C208.906 66.6302 209.078 65.6094 209.422 64.6719C209.766 63.724 210.255 62.9167 210.891 62.25C211.526 61.5729 212.302 61.0469 213.219 60.6719C214.146 60.2865 215.172 60.0938 216.297 60.0938C216.745 60.0938 217.203 60.1458 217.672 60.25C218.141 60.3542 218.583 60.5156 219 60.7344C219.417 60.9427 219.792 61.1979 220.125 61.5C220.458 61.7917 220.708 62.1406 220.875 62.5469V60.4375H222.797V66.2656H220.875C220.875 65.6198 220.755 65.0312 220.516 64.5C220.286 63.9688 219.969 63.5104 219.562 63.125C219.156 62.7396 218.672 62.4427 218.109 62.2344C217.547 62.0156 216.943 61.9062 216.297 61.9062C215.422 61.9062 214.656 62.0573 214 62.3594C213.354 62.6615 212.812 63.0729 212.375 63.5938C211.938 64.1146 211.604 64.7292 211.375 65.4375C211.156 66.1354 211.047 66.901 211.047 67.7344C211.047 68.5677 211.172 69.3385 211.422 70.0469C211.682 70.7448 212.052 71.349 212.531 71.8594C213.021 72.3698 213.604 72.776 214.281 73.0781C214.969 73.3802 215.74 73.5312 216.594 73.5312C217.677 73.5312 218.641 73.3177 219.484 72.8906C220.328 72.4635 220.974 71.8958 221.422 71.1875L222.922 72.2188ZM226.344 71.0625C226.344 70.1458 226.573 69.3802 227.031 68.7656C227.49 68.1406 228.089 67.651 228.828 67.2969C229.578 66.9323 230.432 66.6719 231.391 66.5156C232.359 66.349 233.344 66.2656 234.344 66.2656C234.729 66.2656 235.073 66.2708 235.375 66.2812C235.688 66.2917 235.979 66.3073 236.25 66.3281C236.531 66.349 236.812 66.375 237.094 66.4062C237.375 66.4375 237.682 66.474 238.016 66.5156V65.4688C238.016 64.7604 237.859 64.1771 237.547 63.7188C237.245 63.2604 236.87 62.901 236.422 62.6406C235.974 62.3698 235.505 62.1823 235.016 62.0781C234.526 61.9635 234.109 61.9062 233.766 61.9062C232.682 61.9062 231.682 62.0521 230.766 62.3438C229.849 62.6354 228.995 63.026 228.203 63.5156L227.234 61.9062C228.109 61.375 229.089 60.9427 230.172 60.6094C231.266 60.2656 232.464 60.0938 233.766 60.0938C234.557 60.0938 235.333 60.1979 236.094 60.4062C236.865 60.6042 237.552 60.9167 238.156 61.3438C238.771 61.7604 239.26 62.3125 239.625 63C239.99 63.6875 240.172 64.5104 240.172 65.4688V75H238.016V72.5625C237.641 73.0312 237.214 73.4427 236.734 73.7969C236.266 74.151 235.771 74.4427 235.25 74.6719C234.729 74.8906 234.208 75.0573 233.688 75.1719C233.167 75.2969 232.672 75.3594 232.203 75.3594C230.276 75.3594 228.818 74.9896 227.828 74.25C226.839 73.5104 226.344 72.4479 226.344 71.0625ZM232.203 73.5312C233.099 73.5312 233.901 73.401 234.609 73.1406C235.328 72.8698 235.938 72.5365 236.438 72.1406C236.938 71.7448 237.323 71.3229 237.594 70.875C237.875 70.4271 238.016 70.0208 238.016 69.6562V68.2812C237.318 68.1771 236.646 68.1198 236 68.1094C235.365 68.099 234.812 68.0938 234.344 68.0938C233.573 68.0938 232.828 68.1458 232.109 68.25C231.401 68.3542 230.781 68.526 230.25 68.7656C229.719 68.9948 229.292 69.2969 228.969 69.6719C228.646 70.0469 228.484 70.5104 228.484 71.0625C228.484 71.6771 228.781 72.2448 229.375 72.7656C229.979 73.276 230.922 73.5312 232.203 73.5312ZM275.359 69.6875C275.359 70.5417 275.182 71.3177 274.828 72.0156C274.474 72.7031 274 73.2969 273.406 73.7969C272.812 74.2969 272.13 74.6823 271.359 74.9531C270.589 75.224 269.786 75.3594 268.953 75.3594C267.807 75.3594 266.755 75.1458 265.797 74.7188C264.839 74.2917 264.078 73.6615 263.516 72.8281V75H261.703V68.7969H263.516C263.516 69.4948 263.677 70.1354 264 70.7188C264.323 71.2917 264.734 71.7865 265.234 72.2031C265.734 72.6198 266.307 72.9479 266.953 73.1875C267.609 73.4167 268.276 73.5312 268.953 73.5312C269.557 73.5312 270.115 73.4479 270.625 73.2812C271.135 73.1042 271.583 72.8594 271.969 72.5469C272.354 72.224 272.656 71.8333 272.875 71.375C273.104 70.9167 273.219 70.3958 273.219 69.8125C273.219 69.1562 273.073 68.5938 272.781 68.125C272.5 67.6562 272.115 67.2552 271.625 66.9219C271.146 66.5885 270.604 66.3073 270 66.0781C269.396 65.8385 268.781 65.6042 268.156 65.375C267.417 65.1146 266.677 64.8438 265.938 64.5625C265.198 64.2708 264.536 63.9062 263.953 63.4688C263.37 63.0312 262.896 62.5 262.531 61.875C262.167 61.2396 261.984 60.4531 261.984 59.5156C261.984 58.6823 262.161 57.9427 262.516 57.2969C262.87 56.6406 263.333 56.0885 263.906 55.6406C264.479 55.1927 265.146 54.8542 265.906 54.625C266.667 54.3854 267.448 54.2656 268.25 54.2656C269.24 54.2656 270.151 54.4688 270.984 54.875C271.828 55.2812 272.484 55.901 272.953 56.7344V54.6094H274.844V60.4375H272.953C272.953 59.8229 272.823 59.25 272.562 58.7188C272.312 58.1771 271.969 57.7188 271.531 57.3438C271.094 56.9583 270.594 56.6562 270.031 56.4375C269.469 56.2083 268.875 56.0938 268.25 56.0938C267.698 56.0938 267.172 56.1562 266.672 56.2812C266.172 56.4062 265.734 56.6094 265.359 56.8906C264.984 57.1615 264.682 57.5156 264.453 57.9531C264.234 58.3906 264.125 58.9115 264.125 59.5156C264.125 60.0469 264.255 60.5 264.516 60.875C264.786 61.25 265.146 61.5833 265.594 61.875C266.042 62.1562 266.557 62.4167 267.141 62.6562C267.734 62.8854 268.339 63.1198 268.953 63.3594C269.724 63.6302 270.49 63.9323 271.25 64.2656C272.01 64.599 272.693 65 273.297 65.4688C273.901 65.9375 274.396 66.5156 274.781 67.2031C275.167 67.8802 275.359 68.7083 275.359 69.6875ZM292.797 72.2188C292.182 73.1771 291.339 73.9427 290.266 74.5156C289.203 75.0781 287.938 75.3594 286.469 75.3594C285.333 75.3594 284.292 75.1719 283.344 74.7969C282.396 74.4219 281.583 73.901 280.906 73.2344C280.24 72.5573 279.719 71.7552 279.344 70.8281C278.969 69.901 278.781 68.8698 278.781 67.7344C278.781 66.6302 278.953 65.6094 279.297 64.6719C279.641 63.724 280.13 62.9167 280.766 62.25C281.401 61.5729 282.177 61.0469 283.094 60.6719C284.021 60.2865 285.047 60.0938 286.172 60.0938C286.62 60.0938 287.078 60.1458 287.547 60.25C288.016 60.3542 288.458 60.5156 288.875 60.7344C289.292 60.9427 289.667 61.1979 290 61.5C290.333 61.7917 290.583 62.1406 290.75 62.5469V60.4375H292.672V66.2656H290.75C290.75 65.6198 290.63 65.0312 290.391 64.5C290.161 63.9688 289.844 63.5104 289.438 63.125C289.031 62.7396 288.547 62.4427 287.984 62.2344C287.422 62.0156 286.818 61.9062 286.172 61.9062C285.297 61.9062 284.531 62.0573 283.875 62.3594C283.229 62.6615 282.688 63.0729 282.25 63.5938C281.812 64.1146 281.479 64.7292 281.25 65.4375C281.031 66.1354 280.922 66.901 280.922 67.7344C280.922 68.5677 281.047 69.3385 281.297 70.0469C281.557 70.7448 281.927 71.349 282.406 71.8594C282.896 72.3698 283.479 72.776 284.156 73.0781C284.844 73.3802 285.615 73.5312 286.469 73.5312C287.552 73.5312 288.516 73.3177 289.359 72.8906C290.203 72.4635 290.849 71.8958 291.297 71.1875L292.797 72.2188ZM310.016 62.4844C309.245 62.099 308.328 61.9062 307.266 61.9062C306.391 61.9062 305.609 62.0938 304.922 62.4688C304.234 62.8438 303.651 63.3385 303.172 63.9531C302.693 64.5573 302.323 65.2552 302.062 66.0469C301.812 66.8281 301.688 67.6354 301.688 68.4688V73.1719H304.984V75H296.25V73.1719H299.547V62.2656H296.25V60.4375H301.688V64.0938C302.667 61.4271 304.526 60.0938 307.266 60.0938C308.005 60.0938 308.646 60.1406 309.188 60.2344C309.74 60.3281 310.25 60.4948 310.719 60.7344L310.016 62.4844ZM322.453 57.5312H319.547V54.6094H322.453V57.5312ZM325.359 75H316.625V73.1719H319.922V62.2656H316.625V60.4375H322.078V73.1719H325.359V75ZM345.75 67.7344C345.75 68.8698 345.573 69.901 345.219 70.8281C344.865 71.7552 344.365 72.5573 343.719 73.2344C343.083 73.901 342.312 74.4219 341.406 74.7969C340.5 75.1719 339.484 75.3594 338.359 75.3594C337.589 75.3594 336.839 75.2188 336.109 74.9375C335.391 74.6562 334.719 74.2396 334.094 73.6875V80.8281H331.953V60.4375H334.094V61.7812C335.417 60.6562 336.839 60.0938 338.359 60.0938C339.484 60.0938 340.5 60.2812 341.406 60.6562C342.312 61.0208 343.083 61.5469 343.719 62.2344C344.365 62.9115 344.865 63.724 345.219 64.6719C345.573 65.6094 345.75 66.6302 345.75 67.7344ZM343.609 67.7344C343.609 66.9219 343.495 66.1615 343.266 65.4531C343.047 64.7344 342.714 64.1146 342.266 63.5938C341.818 63.0729 341.266 62.6615 340.609 62.3594C339.964 62.0573 339.214 61.9062 338.359 61.9062C337.547 61.9062 336.786 62.0573 336.078 62.3594C335.38 62.6615 334.719 63.151 334.094 63.8281V71.6406C334.719 72.3177 335.38 72.8021 336.078 73.0938C336.786 73.3854 337.547 73.5312 338.359 73.5312C339.214 73.5312 339.964 73.3802 340.609 73.0781C341.266 72.776 341.818 72.3646 342.266 71.8438C342.714 71.3229 343.047 70.7135 343.266 70.0156C343.495 69.3073 343.609 68.5469 343.609 67.7344ZM363.375 70.3594C363.208 71.8906 362.604 73.1094 361.562 74.0156C360.531 74.9115 359.24 75.3594 357.688 75.3594C356.833 75.3594 356.052 75.2188 355.344 74.9375C354.635 74.6562 354.031 74.2656 353.531 73.7656C353.031 73.2656 352.641 72.6667 352.359 71.9688C352.089 71.2604 351.953 70.4896 351.953 69.6562V62.2656H348.656V60.4375H351.953V54.6094H354.094V60.4375H360.297V62.2656H354.094V69.6562C354.094 70.1875 354.177 70.6875 354.344 71.1562C354.521 71.625 354.76 72.0365 355.062 72.3906C355.375 72.7448 355.75 73.026 356.188 73.2344C356.625 73.4323 357.125 73.5312 357.688 73.5312C358.75 73.5312 359.635 73.2031 360.344 72.5469C361.062 71.8802 361.474 71.0208 361.578 69.9688L363.375 70.3594ZM397.641 69.6875C397.641 70.5417 397.464 71.3177 397.109 72.0156C396.755 72.7031 396.281 73.2969 395.688 73.7969C395.094 74.2969 394.411 74.6823 393.641 74.9531C392.87 75.224 392.068 75.3594 391.234 75.3594C390.089 75.3594 389.036 75.1458 388.078 74.7188C387.12 74.2917 386.359 73.6615 385.797 72.8281V75H383.984V68.7969H385.797C385.797 69.4948 385.958 70.1354 386.281 70.7188C386.604 71.2917 387.016 71.7865 387.516 72.2031C388.016 72.6198 388.589 72.9479 389.234 73.1875C389.891 73.4167 390.557 73.5312 391.234 73.5312C391.839 73.5312 392.396 73.4479 392.906 73.2812C393.417 73.1042 393.865 72.8594 394.25 72.5469C394.635 72.224 394.938 71.8333 395.156 71.375C395.385 70.9167 395.5 70.3958 395.5 69.8125C395.5 69.1562 395.354 68.5938 395.062 68.125C394.781 67.6562 394.396 67.2552 393.906 66.9219C393.427 66.5885 392.885 66.3073 392.281 66.0781C391.677 65.8385 391.062 65.6042 390.438 65.375C389.698 65.1146 388.958 64.8438 388.219 64.5625C387.479 64.2708 386.818 63.9062 386.234 63.4688C385.651 63.0312 385.177 62.5 384.812 61.875C384.448 61.2396 384.266 60.4531 384.266 59.5156C384.266 58.6823 384.443 57.9427 384.797 57.2969C385.151 56.6406 385.615 56.0885 386.188 55.6406C386.76 55.1927 387.427 54.8542 388.188 54.625C388.948 54.3854 389.729 54.2656 390.531 54.2656C391.521 54.2656 392.432 54.4688 393.266 54.875C394.109 55.2812 394.766 55.901 395.234 56.7344V54.6094H397.125V60.4375H395.234C395.234 59.8229 395.104 59.25 394.844 58.7188C394.594 58.1771 394.25 57.7188 393.812 57.3438C393.375 56.9583 392.875 56.6562 392.312 56.4375C391.75 56.2083 391.156 56.0938 390.531 56.0938C389.979 56.0938 389.453 56.1562 388.953 56.2812C388.453 56.4062 388.016 56.6094 387.641 56.8906C387.266 57.1615 386.964 57.5156 386.734 57.9531C386.516 58.3906 386.406 58.9115 386.406 59.5156C386.406 60.0469 386.536 60.5 386.797 60.875C387.068 61.25 387.427 61.5833 387.875 61.875C388.323 62.1562 388.839 62.4167 389.422 62.6562C390.016 62.8854 390.62 63.1198 391.234 63.3594C392.005 63.6302 392.771 63.9323 393.531 64.2656C394.292 64.599 394.974 65 395.578 65.4688C396.182 65.9375 396.677 66.5156 397.062 67.2031C397.448 67.8802 397.641 68.7083 397.641 69.6875ZM415.781 70.3594C415.615 71.8906 415.01 73.1094 413.969 74.0156C412.938 74.9115 411.646 75.3594 410.094 75.3594C409.24 75.3594 408.458 75.2188 407.75 74.9375C407.042 74.6562 406.438 74.2656 405.938 73.7656C405.438 73.2656 405.047 72.6667 404.766 71.9688C404.495 71.2604 404.359 70.4896 404.359 69.6562V62.2656H401.062V60.4375H404.359V54.6094H406.5V60.4375H412.703V62.2656H406.5V69.6562C406.5 70.1875 406.583 70.6875 406.75 71.1562C406.927 71.625 407.167 72.0365 407.469 72.3906C407.781 72.7448 408.156 73.026 408.594 73.2344C409.031 73.4323 409.531 73.5312 410.094 73.5312C411.156 73.5312 412.042 73.2031 412.75 72.5469C413.469 71.8802 413.88 71.0208 413.984 69.9688L415.781 70.3594ZM432.328 75H430.172V73.6562C429.557 74.2083 428.88 74.6302 428.141 74.9219C427.411 75.2135 426.661 75.3594 425.891 75.3594C424.734 75.3594 423.698 75.1719 422.781 74.7969C421.865 74.4219 421.089 73.901 420.453 73.2344C419.828 72.5573 419.344 71.75 419 70.8125C418.667 69.875 418.5 68.849 418.5 67.7344C418.5 66.6302 418.667 65.6094 419 64.6719C419.344 63.724 419.828 62.9167 420.453 62.25C421.089 61.5729 421.865 61.0469 422.781 60.6719C423.698 60.2865 424.734 60.0938 425.891 60.0938C426.661 60.0938 427.411 60.2344 428.141 60.5156C428.88 60.7865 429.557 61.1979 430.172 61.75V56.4375H427.266V54.6094H432.328V75ZM430.172 63.8281C429.557 63.151 428.885 62.6615 428.156 62.3594C427.438 62.0573 426.672 61.9062 425.859 61.9062C425.005 61.9062 424.25 62.0573 423.594 62.3594C422.948 62.6615 422.406 63.0729 421.969 63.5938C421.531 64.1146 421.198 64.7292 420.969 65.4375C420.75 66.1354 420.641 66.901 420.641 67.7344C420.641 68.5677 420.75 69.3385 420.969 70.0469C421.198 70.7448 421.531 71.3542 421.969 71.875C422.406 72.3958 422.948 72.8073 423.594 73.1094C424.25 73.4115 425.005 73.5625 425.859 73.5625C427.505 73.5625 428.943 72.9115 430.172 71.6094V63.8281Z" fill="black"/>
</svg>
