<svg width="394" height="83" viewBox="0 0 394 83" fill="none" xmlns="http://www.w3.org/2000/svg">
<path d="M0.275 6.024L2.195 4.104V2.696L0.275 0.775997L0.851 0.199997L2.771 2.12H4.179L6.099 0.199997L6.675 0.775997L4.755 2.696V4.104L6.675 6.024L6.099 6.6L6.675 7.176L4.755 9.096V10.504L6.675 12.424L6.099 13L6.675 13.576L4.755 15.496V16.904L6.675 18.824L6.099 19.4L6.675 19.976L4.755 21.896V23.304L6.675 25.224L6.099 25.8L6.675 26.376L4.755 28.296V29.704L6.675 31.624L6.099 32.2L6.675 32.776L4.755 34.696V36.104L6.675 38.024L6.099 38.6L6.675 39.176L4.755 41.096V42.504L6.675 44.424L6.099 45L4.179 43.08H2.771L0.851 45L0.275 44.424L2.195 42.504V41.096L0.275 39.176L0.851 38.6L0.275 38.024L2.195 36.104V34.696L0.275 32.776L0.851 32.2L0.275 31.624L2.195 29.704V28.296L0.275 26.376L0.851 25.8L0.275 25.224L2.195 23.304V21.896L0.275 19.976L0.851 19.4L0.275 18.824L2.195 16.904V15.496L0.275 13.576L0.851 13L0.275 12.424L2.195 10.504V9.096L0.275 7.176L0.851 6.6L0.275 6.024ZM6.675 25.224L8.595 23.304V21.896L6.675 19.976L7.251 19.4L9.171 21.32H10.579L12.499 19.4L13.075 19.976L11.155 21.896V23.304L13.075 25.224L12.499 25.8L10.579 23.88H9.171L7.251 25.8L6.675 25.224ZM25.875 6.024L27.795 4.104V2.696L25.875 0.775997L26.451 0.199997L28.371 2.12H29.779L31.699 0.199997L32.275 0.775997L30.355 2.696V4.104L32.275 6.024L31.699 6.6L29.779 4.68H28.371L26.451 6.6L25.875 6.024ZM19.475 6.024L21.395 4.104V2.696L19.475 0.775997L20.051 0.199997L21.971 2.12H23.379L25.299 0.199997L25.875 0.775997L23.955 2.696V4.104L25.875 6.024L25.299 6.6L23.379 4.68H21.971L20.051 6.6L19.475 6.024ZM13.075 6.024L14.995 4.104V2.696L13.075 0.775997L13.651 0.199997L15.571 2.12H16.979L18.899 0.199997L19.475 0.775997L17.555 2.696V4.104L19.475 6.024L18.899 6.6L16.979 4.68H15.571L13.651 6.6L13.075 6.024ZM6.675 6.024L8.595 4.104V2.696L6.675 0.775997L7.251 0.199997L9.171 2.12H10.579L12.499 0.199997L13.075 0.775997L11.155 2.696V4.104L13.075 6.024L12.499 6.6L10.579 4.68H9.171L7.251 6.6L6.675 6.024ZM25.875 25.224L27.795 23.304V21.896L25.875 19.976L26.451 19.4L28.371 21.32H29.779L31.699 19.4L32.275 19.976L30.355 21.896V23.304L32.275 25.224L31.699 25.8L29.779 23.88H28.371L26.451 25.8L25.875 25.224ZM19.475 25.224L21.395 23.304V21.896L19.475 19.976L20.051 19.4L21.971 21.32H23.379L25.299 19.4L25.875 19.976L23.955 21.896V23.304L25.875 25.224L25.299 25.8L23.379 23.88H21.971L20.051 25.8L19.475 25.224ZM13.075 25.224L14.995 23.304V21.896L13.075 19.976L13.651 19.4L15.571 21.32H16.979L18.899 19.4L19.475 19.976L17.555 21.896V23.304L19.475 25.224L18.899 25.8L16.979 23.88H15.571L13.651 25.8L13.075 25.224ZM4.179 40.52L6.099 38.6L4.179 36.68H2.771L0.851 38.6L2.771 40.52H4.179ZM4.179 21.32L6.099 19.4L4.179 17.48H2.771L0.851 19.4L2.771 21.32H4.179ZM4.179 14.92L6.099 13L4.179 11.08H2.771L0.851 13L2.771 14.92H4.179ZM4.179 8.52L6.099 6.6L4.179 4.68H2.771L0.851 6.6L2.771 8.52H4.179ZM4.179 27.72L6.099 25.8L4.179 23.88H2.771L0.851 25.8L2.771 27.72H4.179ZM4.179 34.12L6.099 32.2L4.179 30.28H2.771L0.851 32.2L2.771 34.12H4.179ZM40.5875 25.224L42.5075 23.304V21.896L40.5875 19.976L41.1635 19.4L40.5875 18.824L42.5075 16.904V15.496L40.5875 13.576L41.1635 13L43.0835 14.92H44.4915L46.4115 13L46.9875 13.576L45.0675 15.496V16.904L46.9875 18.824L46.4115 19.4L46.9875 19.976L45.0675 21.896V23.304L46.9875 25.224L46.4115 25.8L46.9875 26.376L45.0675 28.296V29.704L46.9875 31.624L46.4115 32.2L46.9875 32.776L45.0675 34.696V36.104L46.9875 38.024L46.4115 38.6L46.9875 39.176L45.0675 41.096V42.504L46.9875 44.424L46.4115 45L44.4915 43.08H43.0835L41.1635 45L40.5875 44.424L42.5075 42.504V41.096L40.5875 39.176L41.1635 38.6L40.5875 38.024L42.5075 36.104V34.696L40.5875 32.776L41.1635 32.2L40.5875 31.624L42.5075 29.704V28.296L40.5875 26.376L41.1635 25.8L40.5875 25.224ZM40.5875 6.024L42.5075 4.104V2.696L40.5875 0.775997L41.1635 0.199997L43.0835 2.12H44.4915L46.4115 0.199997L46.9875 0.775997L45.0675 2.696V4.104L46.9875 6.024L46.4115 6.6L44.4915 4.68H43.0835L41.1635 6.6L40.5875 6.024ZM43.0835 36.68L41.1635 38.6L43.0835 40.52H44.4915L46.4115 38.6L44.4915 36.68H43.0835ZM43.0835 30.28L41.1635 32.2L43.0835 34.12H44.4915L46.4115 32.2L44.4915 30.28H43.0835ZM43.0835 23.88L41.1635 25.8L43.0835 27.72H44.4915L46.4115 25.8L44.4915 23.88H43.0835ZM43.0835 17.48L41.1635 19.4L43.0835 21.32H44.4915L46.4115 19.4L44.4915 17.48H43.0835ZM59.775 25.224L61.695 23.304V21.896L59.775 19.976L60.351 19.4L59.775 18.824L61.695 16.904V15.496L59.775 13.576L60.351 13L62.271 14.92H63.679L65.599 13L66.175 13.576L64.255 15.496V16.904L66.175 18.824L65.599 19.4L66.175 19.976L64.255 21.896V23.304L66.175 25.224L65.599 25.8L66.175 26.376L64.255 28.296V29.704L66.175 31.624L65.599 32.2L66.175 32.776L64.255 34.696V36.104L66.175 38.024L65.599 38.6L66.175 39.176L64.255 41.096V42.504L66.175 44.424L65.599 45L63.679 43.08H62.271L60.351 45L59.775 44.424L61.695 42.504V41.096L59.775 39.176L60.351 38.6L59.775 38.024L61.695 36.104V34.696L59.775 32.776L60.351 32.2L59.775 31.624L61.695 29.704V28.296L59.775 26.376L60.351 25.8L59.775 25.224ZM78.975 25.224L80.895 23.304V21.896L78.975 19.976L79.551 19.4L78.975 18.824L80.895 16.904V15.496L78.975 13.576L79.551 13L81.471 14.92H82.879L84.799 13L85.375 13.576L83.455 15.496V16.904L85.375 18.824L84.799 19.4L85.375 19.976L83.455 21.896V23.304L85.375 25.224L84.799 25.8L85.375 26.376L83.455 28.296V29.704L85.375 31.624L84.799 32.2L85.375 32.776L83.455 34.696V36.104L85.375 38.024L84.799 38.6L85.375 39.176L83.455 41.096V42.504L85.375 44.424L84.799 45L82.879 43.08H81.471L79.551 45L78.975 44.424L80.895 42.504V41.096L78.975 39.176L79.551 38.6L78.975 38.024L80.895 36.104V34.696L78.975 32.776L79.551 32.2L78.975 31.624L80.895 29.704V28.296L78.975 26.376L79.551 25.8L78.975 25.224ZM72.575 25.224L74.495 23.304V21.896L72.575 19.976L73.151 19.4L75.071 21.32H76.479L78.399 19.4L78.975 19.976L77.055 21.896V23.304L78.975 25.224L78.399 25.8L76.479 23.88H75.071L73.151 25.8L72.575 25.224ZM66.175 31.624L68.095 29.704V28.296L66.175 26.376L66.751 25.8L68.671 27.72H70.079L71.999 25.8L72.575 26.376L70.655 28.296V29.704L72.575 31.624L71.999 32.2L70.079 30.28H68.671L66.751 32.2L66.175 31.624ZM81.471 30.28L79.551 32.2L81.471 34.12H82.879L84.799 32.2L82.879 30.28H81.471ZM81.471 23.88L79.551 25.8L81.471 27.72H82.879L84.799 25.8L82.879 23.88H81.471ZM81.471 17.48L79.551 19.4L81.471 21.32H82.879L84.799 19.4L82.879 17.48H81.471ZM62.271 23.88L60.351 25.8L62.271 27.72H63.679L65.599 25.8L63.679 23.88H62.271ZM62.271 17.48L60.351 19.4L62.271 21.32H63.679L65.599 19.4L63.679 17.48H62.271ZM62.271 30.28L60.351 32.2L62.271 34.12H63.679L65.599 32.2L63.679 30.28H62.271ZM81.471 36.68L79.551 38.6L81.471 40.52H82.879L84.799 38.6L82.879 36.68H81.471ZM62.271 36.68L60.351 38.6L62.271 40.52H63.679L65.599 38.6L63.679 36.68H62.271ZM117.35 25.224L119.27 23.304V21.896L117.35 19.976L117.926 19.4L117.35 18.824L119.27 16.904V15.496L117.35 13.576L117.926 13L117.35 12.424L119.27 10.504V9.096L117.35 7.176L117.926 6.6L117.35 6.024L119.27 4.104V2.696L117.35 0.775997L117.926 0.199997L119.846 2.12H121.254L123.174 0.199997L123.75 0.775997L121.83 2.696V4.104L123.75 6.024L123.174 6.6L123.75 7.176L121.83 9.096V10.504L123.75 12.424L123.174 13L123.75 13.576L121.83 15.496V16.904L123.75 18.824L123.174 19.4L123.75 19.976L121.83 21.896V23.304L123.75 25.224L123.174 25.8L123.75 26.376L121.83 28.296V29.704L123.75 31.624L123.174 32.2L123.75 32.776L121.83 34.696V36.104L123.75 38.024L123.174 38.6L123.75 39.176L121.83 41.096V42.504L123.75 44.424L123.174 45L121.254 43.08H119.846L117.926 45L117.35 44.424L119.27 42.504V41.096L117.35 39.176L117.926 38.6L117.35 38.024L119.27 36.104V34.696L117.35 32.776L117.926 32.2L117.35 31.624L119.27 29.704V28.296L117.35 26.376L117.926 25.8L117.35 25.224ZM98.15 18.824L100.07 16.904V15.496L98.15 13.576L98.726 13L100.646 14.92H102.054L103.974 13L104.55 13.576L102.63 15.496V16.904L104.55 18.824L103.974 19.4L104.55 19.976L102.63 21.896V23.304L104.55 25.224L103.974 25.8L104.55 26.376L102.63 28.296V29.704L104.55 31.624L103.974 32.2L104.55 32.776L102.63 34.696V36.104L104.55 38.024L103.974 38.6L104.55 39.176L102.63 41.096V42.504L104.55 44.424L103.974 45L102.054 43.08H100.646L98.726 45L98.15 44.424L100.07 42.504V41.096L98.15 39.176L98.726 38.6L98.15 38.024L100.07 36.104V34.696L98.15 32.776L98.726 32.2L98.15 31.624L100.07 29.704V28.296L98.15 26.376L98.726 25.8L98.15 25.224L100.07 23.304V21.896L98.15 19.976L98.726 19.4L98.15 18.824ZM104.55 44.424L106.47 42.504V41.096L104.55 39.176L105.126 38.6L107.046 40.52H108.454L110.374 38.6L110.95 39.176L109.03 41.096V42.504L110.95 44.424L110.374 45L108.454 43.08H107.046L105.126 45L104.55 44.424ZM110.95 18.824L112.87 16.904V15.496L110.95 13.576L111.526 13L113.446 14.92H114.854L116.774 13L117.35 13.576L115.43 15.496V16.904L117.35 18.824L116.774 19.4L114.854 17.48H113.446L111.526 19.4L110.95 18.824ZM110.95 38.024L112.87 36.104V34.696L110.95 32.776L111.526 32.2L113.446 34.12H114.854L116.774 32.2L117.35 32.776L115.43 34.696V36.104L117.35 38.024L116.774 38.6L114.854 36.68H113.446L111.526 38.6L110.95 38.024ZM104.55 18.824L106.47 16.904V15.496L104.55 13.576L105.126 13L107.046 14.92H108.454L110.374 13L110.95 13.576L109.03 15.496V16.904L110.95 18.824L110.374 19.4L108.454 17.48H107.046L105.126 19.4L104.55 18.824ZM102.054 40.52L103.974 38.6L102.054 36.68H100.646L98.726 38.6L100.646 40.52H102.054ZM119.846 30.28L117.926 32.2L119.846 34.12H121.254L123.174 32.2L121.254 30.28H119.846ZM119.846 17.48L117.926 19.4L119.846 21.32H121.254L123.174 19.4L121.254 17.48H119.846ZM119.846 23.88L117.926 25.8L119.846 27.72H121.254L123.174 25.8L121.254 23.88H119.846ZM121.254 14.92L123.174 13L121.254 11.08H119.846L117.926 13L119.846 14.92H121.254ZM119.846 36.68L117.926 38.6L119.846 40.52H121.254L123.174 38.6L121.254 36.68H119.846ZM102.054 21.32L103.974 19.4L102.054 17.48H100.646L98.726 19.4L100.646 21.32H102.054ZM121.254 8.52L123.174 6.6L121.254 4.68H119.846L117.926 6.6L119.846 8.52H121.254ZM102.054 34.12L103.974 32.2L102.054 30.28H100.646L98.726 32.2L100.646 34.12H102.054ZM102.054 27.72L103.974 25.8L102.054 23.88H100.646L98.726 25.8L100.646 27.72H102.054ZM154.15 38.024L156.07 36.104V34.696L154.15 32.776L154.726 32.2L154.15 31.624L156.07 29.704V28.296L154.15 26.376L154.726 25.8L154.15 25.224L156.07 23.304V21.896L154.15 19.976L154.726 19.4L154.15 18.824L156.07 16.904V15.496L154.15 13.576L154.726 13L154.15 12.424L156.07 10.504V9.096L154.15 7.176L154.726 6.6L154.15 6.024L156.07 4.104V2.696L154.15 0.775997L154.726 0.199997L156.646 2.12H158.054L159.974 0.199997L160.55 0.775997L158.63 2.696V4.104L160.55 6.024L159.974 6.6L160.55 7.176L158.63 9.096V10.504L160.55 12.424L159.974 13L160.55 13.576L158.63 15.496V16.904L160.55 18.824L159.974 19.4L160.55 19.976L158.63 21.896V23.304L160.55 25.224L159.974 25.8L160.55 26.376L158.63 28.296V29.704L160.55 31.624L159.974 32.2L160.55 32.776L158.63 34.696V36.104L160.55 38.024L159.974 38.6L160.55 39.176L158.63 41.096V42.504L160.55 44.424L159.974 45L158.054 43.08H156.646L154.726 45L154.15 44.424L156.07 42.504V41.096L154.15 39.176L154.726 38.6L154.15 38.024ZM179.75 18.824L181.67 16.904V15.496L179.75 13.576L180.326 13L179.75 12.424L181.67 10.504V9.096L179.75 7.176L180.326 6.6L179.75 6.024L181.67 4.104V2.696L179.75 0.775997L180.326 0.199997L182.246 2.12H183.654L185.574 0.199997L186.15 0.775997L184.23 2.696V4.104L186.15 6.024L185.574 6.6L186.15 7.176L184.23 9.096V10.504L186.15 12.424L185.574 13L186.15 13.576L184.23 15.496V16.904L186.15 18.824L185.574 19.4L186.15 19.976L184.23 21.896V23.304L186.15 25.224L185.574 25.8L183.654 23.88H182.246L180.326 25.8L179.75 25.224L181.67 23.304V21.896L179.75 19.976L180.326 19.4L179.75 18.824ZM173.35 31.624L175.27 29.704V28.296L173.35 26.376L173.926 25.8L173.35 25.224L175.27 23.304V21.896L173.35 19.976L173.926 19.4L175.846 21.32H177.254L179.174 19.4L179.75 19.976L177.83 21.896V23.304L179.75 25.224L179.174 25.8L179.75 26.376L177.83 28.296V29.704L179.75 31.624L179.174 32.2L177.254 30.28H175.846L173.926 32.2L173.35 31.624ZM166.95 6.024L168.87 4.104V2.696L166.95 0.775997L167.526 0.199997L169.446 2.12H170.854L172.774 0.199997L173.35 0.775997L171.43 2.696V4.104L173.35 6.024L172.774 6.6L170.854 4.68H169.446L167.526 6.6L166.95 6.024ZM166.95 25.224L168.87 23.304V21.896L166.95 19.976L167.526 19.4L169.446 21.32H170.854L172.774 19.4L173.35 19.976L171.43 21.896V23.304L173.35 25.224L172.774 25.8L170.854 23.88H169.446L167.526 25.8L166.95 25.224ZM160.55 25.224L162.47 23.304V21.896L160.55 19.976L161.126 19.4L163.046 21.32H164.454L166.374 19.4L166.95 19.976L165.03 21.896V23.304L166.95 25.224L166.374 25.8L164.454 23.88H163.046L161.126 25.8L160.55 25.224ZM160.55 6.024L162.47 4.104V2.696L160.55 0.775997L161.126 0.199997L163.046 2.12H164.454L166.374 0.199997L166.95 0.775997L165.03 2.696V4.104L166.95 6.024L166.374 6.6L164.454 4.68H163.046L161.126 6.6L160.55 6.024ZM179.75 38.024L181.67 36.104V34.696L179.75 32.776L180.326 32.2L182.246 34.12H183.654L185.574 32.2L186.15 32.776L184.23 34.696V36.104L186.15 38.024L185.574 38.6L183.654 36.68H182.246L180.326 38.6L179.75 38.024ZM173.35 6.024L175.27 4.104V2.696L173.35 0.775997L173.926 0.199997L175.846 2.12H177.254L179.174 0.199997L179.75 0.775997L177.83 2.696V4.104L179.75 6.024L179.174 6.6L177.254 4.68H175.846L173.926 6.6L173.35 6.024ZM186.15 44.424L188.07 42.504V41.096L186.15 39.176L186.726 38.6L188.646 40.52H190.054L191.974 38.6L192.55 39.176L190.63 41.096V42.504L192.55 44.424L191.974 45L190.054 43.08H188.646L186.726 45L186.15 44.424ZM156.646 17.48L154.726 19.4L156.646 21.32H158.054L159.974 19.4L158.054 17.48H156.646ZM175.846 23.88L173.926 25.8L175.846 27.72H177.254L179.174 25.8L177.254 23.88H175.846ZM156.646 30.28L154.726 32.2L156.646 34.12H158.054L159.974 32.2L158.054 30.28H156.646ZM156.646 11.08L154.726 13L156.646 14.92H158.054L159.974 13L158.054 11.08H156.646ZM158.054 27.72L159.974 25.8L158.054 23.88H156.646L154.726 25.8L156.646 27.72H158.054ZM158.054 8.52L159.974 6.6L158.054 4.68H156.646L154.726 6.6L156.646 8.52H158.054ZM182.246 17.48L180.326 19.4L182.246 21.32H183.654L185.574 19.4L183.654 17.48H182.246ZM156.646 36.68L154.726 38.6L156.646 40.52H158.054L159.974 38.6L158.054 36.68H156.646ZM182.246 11.08L180.326 13L182.246 14.92H183.654L185.574 13L183.654 11.08H182.246ZM183.654 8.52L185.574 6.6L183.654 4.68H182.246L180.326 6.6L182.246 8.52H183.654ZM201.525 31.624L203.445 29.704V28.296L201.525 26.376L202.101 25.8L201.525 25.224L203.445 23.304V21.896L201.525 19.976L202.101 19.4L201.525 18.824L203.445 16.904V15.496L201.525 13.576L202.101 13L204.021 14.92H205.429L207.349 13L207.925 13.576L206.005 15.496V16.904L207.925 18.824L207.349 19.4L207.925 19.976L206.005 21.896V23.304L207.925 25.224L207.349 25.8L207.925 26.376L206.005 28.296V29.704L207.925 31.624L207.349 32.2L207.925 32.776L206.005 34.696V36.104L207.925 38.024L207.349 38.6L207.925 39.176L206.005 41.096V42.504L207.925 44.424L207.349 45L205.429 43.08H204.021L202.101 45L201.525 44.424L203.445 42.504V41.096L201.525 39.176L202.101 38.6L201.525 38.024L203.445 36.104V34.696L201.525 32.776L202.101 32.2L201.525 31.624ZM220.725 31.624L222.645 29.704V28.296L220.725 26.376L221.301 25.8L220.725 25.224L222.645 23.304V21.896L220.725 19.976L221.301 19.4L220.725 18.824L222.645 16.904V15.496L220.725 13.576L221.301 13L223.221 14.92H224.629L226.549 13L227.125 13.576L225.205 15.496V16.904L227.125 18.824L226.549 19.4L227.125 19.976L225.205 21.896V23.304L227.125 25.224L226.549 25.8L227.125 26.376L225.205 28.296V29.704L227.125 31.624L226.549 32.2L224.629 30.28H223.221L221.301 32.2L220.725 31.624ZM214.325 31.624L216.245 29.704V28.296L214.325 26.376L214.901 25.8L216.821 27.72H218.229L220.149 25.8L220.725 26.376L218.805 28.296V29.704L220.725 31.624L220.149 32.2L218.229 30.28H216.821L214.901 32.2L214.325 31.624ZM207.925 31.624L209.845 29.704V28.296L207.925 26.376L208.501 25.8L210.421 27.72H211.829L213.749 25.8L214.325 26.376L212.405 28.296V29.704L214.325 31.624L213.749 32.2L211.829 30.28H210.421L208.501 32.2L207.925 31.624ZM207.925 44.424L209.845 42.504V41.096L207.925 39.176L208.501 38.6L210.421 40.52H211.829L213.749 38.6L214.325 39.176L212.405 41.096V42.504L214.325 44.424L213.749 45L211.829 43.08H210.421L208.501 45L207.925 44.424ZM214.325 18.824L216.245 16.904V15.496L214.325 13.576L214.901 13L216.821 14.92H218.229L220.149 13L220.725 13.576L218.805 15.496V16.904L220.725 18.824L220.149 19.4L218.229 17.48H216.821L214.901 19.4L214.325 18.824ZM214.325 44.424L216.245 42.504V41.096L214.325 39.176L214.901 38.6L216.821 40.52H218.229L220.149 38.6L220.725 39.176L218.805 41.096V42.504L220.725 44.424L220.149 45L218.229 43.08H216.821L214.901 45L214.325 44.424ZM220.725 44.424L222.645 42.504V41.096L220.725 39.176L221.301 38.6L223.221 40.52H224.629L226.549 38.6L227.125 39.176L225.205 41.096V42.504L227.125 44.424L226.549 45L224.629 43.08H223.221L221.301 45L220.725 44.424ZM207.925 18.824L209.845 16.904V15.496L207.925 13.576L208.501 13L210.421 14.92H211.829L213.749 13L214.325 13.576L212.405 15.496V16.904L214.325 18.824L213.749 19.4L211.829 17.48H210.421L208.501 19.4L207.925 18.824ZM204.021 23.88L202.101 25.8L204.021 27.72H205.429L207.349 25.8L205.429 23.88H204.021ZM205.429 21.32L207.349 19.4L205.429 17.48H204.021L202.101 19.4L204.021 21.32H205.429ZM223.221 23.88L221.301 25.8L223.221 27.72H224.629L226.549 25.8L224.629 23.88H223.221ZM224.629 21.32L226.549 19.4L224.629 17.48H223.221L221.301 19.4L223.221 21.32H224.629ZM204.021 30.28L202.101 32.2L204.021 34.12H205.429L207.349 32.2L205.429 30.28H204.021ZM204.021 36.68L202.101 38.6L204.021 40.52H205.429L207.349 38.6L205.429 36.68H204.021ZM238.963 25.224L240.883 23.304V21.896L238.963 19.976L239.539 19.4L238.963 18.824L240.883 16.904V15.496L238.963 13.576L239.539 13L241.459 14.92H242.867L244.787 13L245.363 13.576L243.443 15.496V16.904L245.363 18.824L244.787 19.4L245.363 19.976L243.443 21.896V23.304L245.363 25.224L244.787 25.8L245.363 26.376L243.443 28.296V29.704L245.363 31.624L244.787 32.2L245.363 32.776L243.443 34.696V36.104L245.363 38.024L244.787 38.6L245.363 39.176L243.443 41.096V42.504L245.363 44.424L244.787 45L245.363 45.576L243.443 47.496V48.904L245.363 50.824L244.787 51.4L245.363 51.976L243.443 53.896V55.304L245.363 57.224L244.787 57.8L242.867 55.88H241.459L239.539 57.8L238.963 57.224L240.883 55.304V53.896L238.963 51.976L239.539 51.4L238.963 50.824L240.883 48.904V47.496L238.963 45.576L239.539 45L238.963 44.424L240.883 42.504V41.096L238.963 39.176L239.539 38.6L238.963 38.024L240.883 36.104V34.696L238.963 32.776L239.539 32.2L238.963 31.624L240.883 29.704V28.296L238.963 26.376L239.539 25.8L238.963 25.224ZM258.163 25.224L260.083 23.304V21.896L258.163 19.976L258.739 19.4L258.163 18.824L260.083 16.904V15.496L258.163 13.576L258.739 13L260.659 14.92H262.067L263.987 13L264.562 13.576L262.643 15.496V16.904L264.562 18.824L263.987 19.4L264.562 19.976L262.643 21.896V23.304L264.562 25.224L263.987 25.8L264.562 26.376L262.643 28.296V29.704L264.562 31.624L263.987 32.2L264.562 32.776L262.643 34.696V36.104L264.562 38.024L263.987 38.6L264.562 39.176L262.643 41.096V42.504L264.562 44.424L263.987 45L262.067 43.08H260.659L258.739 45L258.163 44.424L260.083 42.504V41.096L258.163 39.176L258.739 38.6L258.163 38.024L260.083 36.104V34.696L258.163 32.776L258.739 32.2L258.163 31.624L260.083 29.704V28.296L258.163 26.376L258.739 25.8L258.163 25.224ZM245.363 44.424L247.283 42.504V41.096L245.363 39.176L245.939 38.6L247.859 40.52H249.267L251.187 38.6L251.763 39.176L249.843 41.096V42.504L251.763 44.424L251.187 45L249.267 43.08H247.859L245.939 45L245.363 44.424ZM251.763 18.824L253.683 16.904V15.496L251.763 13.576L252.339 13L254.259 14.92H255.667L257.587 13L258.163 13.576L256.243 15.496V16.904L258.163 18.824L257.587 19.4L255.667 17.48H254.259L252.339 19.4L251.763 18.824ZM245.363 25.224L247.283 23.304V21.896L245.363 19.976L245.939 19.4L247.859 21.32H249.267L251.187 19.4L251.763 19.976L249.843 21.896V23.304L251.763 25.224L251.187 25.8L249.267 23.88H247.859L245.939 25.8L245.363 25.224ZM251.763 44.424L253.683 42.504V41.096L251.763 39.176L252.339 38.6L254.259 40.52H255.667L257.587 38.6L258.163 39.176L256.243 41.096V42.504L258.163 44.424L257.587 45L255.667 43.08H254.259L252.339 45L251.763 44.424ZM260.659 36.68L258.739 38.6L260.659 40.52H262.067L263.987 38.6L262.067 36.68H260.659ZM260.659 30.28L258.739 32.2L260.659 34.12H262.067L263.987 32.2L262.067 30.28H260.659ZM260.659 23.88L258.739 25.8L260.659 27.72H262.067L263.987 25.8L262.067 23.88H260.659ZM241.459 30.28L239.539 32.2L241.459 34.12H242.867L244.787 32.2L242.867 30.28H241.459ZM260.659 17.48L258.739 19.4L260.659 21.32H262.067L263.987 19.4L262.067 17.48H260.659ZM241.459 49.48L239.539 51.4L241.459 53.32H242.867L244.787 51.4L242.867 49.48H241.459ZM241.459 36.68L239.539 38.6L241.459 40.52H242.867L244.787 38.6L242.867 36.68H241.459ZM241.459 17.48L239.539 19.4L241.459 21.32H242.867L244.787 19.4L242.867 17.48H241.459ZM241.459 43.08L239.539 45L241.459 46.92H242.867L244.787 45L242.867 43.08H241.459ZM241.459 23.88L239.539 25.8L241.459 27.72H242.867L244.787 25.8L242.867 23.88H241.459ZM277.338 25.224L279.258 23.304V21.896L277.338 19.976L277.914 19.4L277.338 18.824L279.258 16.904V15.496L277.338 13.576L277.914 13L277.338 12.424L279.258 10.504V9.096L277.338 7.176L277.914 6.6L277.338 6.024L279.258 4.104V2.696L277.338 0.775997L277.914 0.199997L279.834 2.12H281.242L283.162 0.199997L283.738 0.775997L281.818 2.696V4.104L283.738 6.024L283.162 6.6L283.738 7.176L281.818 9.096V10.504L283.738 12.424L283.162 13L283.738 13.576L281.818 15.496V16.904L283.738 18.824L283.162 19.4L283.738 19.976L281.818 21.896V23.304L283.738 25.224L283.162 25.8L283.738 26.376L281.818 28.296V29.704L283.738 31.624L283.162 32.2L283.738 32.776L281.818 34.696V36.104L283.738 38.024L283.162 38.6L283.738 39.176L281.818 41.096V42.504L283.738 44.424L283.162 45L281.242 43.08H279.834L277.914 45L277.338 44.424L279.258 42.504V41.096L277.338 39.176L277.914 38.6L277.338 38.024L279.258 36.104V34.696L277.338 32.776L277.914 32.2L277.338 31.624L279.258 29.704V28.296L277.338 26.376L277.914 25.8L277.338 25.224ZM281.242 8.52L283.162 6.6L281.242 4.68H279.834L277.914 6.6L279.834 8.52H281.242ZM279.834 36.68L277.914 38.6L279.834 40.52H281.242L283.162 38.6L281.242 36.68H279.834ZM279.834 30.28L277.914 32.2L279.834 34.12H281.242L283.162 32.2L281.242 30.28H279.834ZM279.834 23.88L277.914 25.8L279.834 27.72H281.242L283.162 25.8L281.242 23.88H279.834ZM281.242 14.92L283.162 13L281.242 11.08H279.834L277.914 13L279.834 14.92H281.242ZM279.834 17.48L277.914 19.4L279.834 21.32H281.242L283.162 19.4L281.242 17.48H279.834ZM315.725 25.224L317.645 23.304V21.896L315.725 19.976L316.301 19.4L315.725 18.824L317.645 16.904V15.496L315.725 13.576L316.301 13L318.221 14.92H319.629L321.549 13L322.125 13.576L320.205 15.496V16.904L322.125 18.824L321.549 19.4L322.125 19.976L320.205 21.896V23.304L322.125 25.224L321.549 25.8L322.125 26.376L320.205 28.296V29.704L322.125 31.624L321.549 32.2L322.125 32.776L320.205 34.696V36.104L322.125 38.024L321.549 38.6L322.125 39.176L320.205 41.096V42.504L322.125 44.424L321.549 45L319.629 43.08H318.221L316.301 45L315.725 44.424L317.645 42.504V41.096L315.725 39.176L316.301 38.6L315.725 38.024L317.645 36.104V34.696L315.725 32.776L316.301 32.2L315.725 31.624L317.645 29.704V28.296L315.725 26.376L316.301 25.8L315.725 25.224ZM296.525 31.624L298.445 29.704V28.296L296.525 26.376L297.101 25.8L299.021 27.72H300.429L302.349 25.8L302.925 26.376L301.005 28.296V29.704L302.925 31.624L302.349 32.2L302.925 32.776L301.005 34.696V36.104L302.925 38.024L302.349 38.6L302.925 39.176L301.005 41.096V42.504L302.925 44.424L302.349 45L300.429 43.08H299.021L297.101 45L296.525 44.424L298.445 42.504V41.096L296.525 39.176L297.101 38.6L296.525 38.024L298.445 36.104V34.696L296.525 32.776L297.101 32.2L296.525 31.624ZM309.325 44.424L311.245 42.504V41.096L309.325 39.176L309.901 38.6L311.821 40.52H313.229L315.149 38.6L315.725 39.176L313.805 41.096V42.504L315.725 44.424L315.149 45L313.229 43.08H311.821L309.901 45L309.325 44.424ZM302.925 44.424L304.845 42.504V41.096L302.925 39.176L303.501 38.6L305.421 40.52H306.829L308.749 38.6L309.325 39.176L307.405 41.096V42.504L309.325 44.424L308.749 45L306.829 43.08H305.421L303.501 45L302.925 44.424ZM309.325 31.624L311.245 29.704V28.296L309.325 26.376L309.901 25.8L311.821 27.72H313.229L315.149 25.8L315.725 26.376L313.805 28.296V29.704L315.725 31.624L315.149 32.2L313.229 30.28H311.821L309.901 32.2L309.325 31.624ZM296.525 18.824L298.445 16.904V15.496L296.525 13.576L297.101 13L299.021 14.92H300.429L302.349 13L302.925 13.576L301.005 15.496V16.904L302.925 18.824L302.349 19.4L300.429 17.48H299.021L297.101 19.4L296.525 18.824ZM309.325 18.824L311.245 16.904V15.496L309.325 13.576L309.901 13L311.821 14.92H313.229L315.149 13L315.725 13.576L313.805 15.496V16.904L315.725 18.824L315.149 19.4L313.229 17.48H311.821L309.901 19.4L309.325 18.824ZM302.925 31.624L304.845 29.704V28.296L302.925 26.376L303.501 25.8L305.421 27.72H306.829L308.749 25.8L309.325 26.376L307.405 28.296V29.704L309.325 31.624L308.749 32.2L306.829 30.28H305.421L303.501 32.2L302.925 31.624ZM302.925 18.824L304.845 16.904V15.496L302.925 13.576L303.501 13L305.421 14.92H306.829L308.749 13L309.325 13.576L307.405 15.496V16.904L309.325 18.824L308.749 19.4L306.829 17.48H305.421L303.501 19.4L302.925 18.824ZM318.221 17.48L316.301 19.4L318.221 21.32H319.629L321.549 19.4L319.629 17.48H318.221ZM300.429 40.52L302.349 38.6L300.429 36.68H299.021L297.101 38.6L299.021 40.52H300.429ZM318.221 36.68L316.301 38.6L318.221 40.52H319.629L321.549 38.6L319.629 36.68H318.221ZM318.221 23.88L316.301 25.8L318.221 27.72H319.629L321.549 25.8L319.629 23.88H318.221ZM318.221 30.28L316.301 32.2L318.221 34.12H319.629L321.549 32.2L319.629 30.28H318.221ZM300.429 34.12L302.349 32.2L300.429 30.28H299.021L297.101 32.2L299.021 34.12H300.429ZM334.9 31.624L336.82 29.704V28.296L334.9 26.376L335.476 25.8L334.9 25.224L336.82 23.304V21.896L334.9 19.976L335.476 19.4L334.9 18.824L336.82 16.904V15.496L334.9 13.576L335.476 13L337.396 14.92H338.804L340.724 13L341.3 13.576L339.38 15.496V16.904L341.3 18.824L340.724 19.4L341.3 19.976L339.38 21.896V23.304L341.3 25.224L340.724 25.8L341.3 26.376L339.38 28.296V29.704L341.3 31.624L340.724 32.2L341.3 32.776L339.38 34.696V36.104L341.3 38.024L340.724 38.6L341.3 39.176L339.38 41.096V42.504L341.3 44.424L340.724 45L338.804 43.08H337.396L335.476 45L334.9 44.424L336.82 42.504V41.096L334.9 39.176L335.476 38.6L334.9 38.024L336.82 36.104V34.696L334.9 32.776L335.476 32.2L334.9 31.624ZM341.3 44.424L343.22 42.504V41.096L341.3 39.176L341.876 38.6L343.796 40.52H345.204L347.124 38.6L347.7 39.176L345.78 41.096V42.504L347.7 44.424L347.124 45L345.204 43.08H343.796L341.876 45L341.3 44.424ZM347.7 44.424L349.62 42.504V41.096L347.7 39.176L348.276 38.6L350.196 40.52H351.604L353.524 38.6L354.1 39.176L352.18 41.096V42.504L354.1 44.424L353.524 45L351.604 43.08H350.196L348.276 45L347.7 44.424ZM347.7 18.824L349.62 16.904V15.496L347.7 13.576L348.276 13L350.196 14.92H351.604L353.524 13L354.1 13.576L352.18 15.496V16.904L354.1 18.824L353.524 19.4L351.604 17.48H350.196L348.276 19.4L347.7 18.824ZM341.3 18.824L343.22 16.904V15.496L341.3 13.576L341.876 13L343.796 14.92H345.204L347.124 13L347.7 13.576L345.78 15.496V16.904L347.7 18.824L347.124 19.4L345.204 17.48H343.796L341.876 19.4L341.3 18.824ZM337.396 36.68L335.476 38.6L337.396 40.52H338.804L340.724 38.6L338.804 36.68H337.396ZM337.396 23.88L335.476 25.8L337.396 27.72H338.804L340.724 25.8L338.804 23.88H337.396ZM338.804 21.32L340.724 19.4L338.804 17.48H337.396L335.476 19.4L337.396 21.32H338.804ZM337.396 30.28L335.476 32.2L337.396 34.12H338.804L340.724 32.2L338.804 30.28H337.396ZM364.963 31.624L366.883 29.704V28.296L364.963 26.376L365.539 25.8L364.963 25.224L366.883 23.304V21.896L364.963 19.976L365.539 19.4L364.963 18.824L366.883 16.904V15.496L364.963 13.576L365.539 13L367.459 14.92H368.867L370.787 13L371.363 13.576L369.443 15.496V16.904L371.363 18.824L370.787 19.4L371.363 19.976L369.443 21.896V23.304L371.363 25.224L370.787 25.8L371.363 26.376L369.443 28.296V29.704L371.363 31.624L370.787 32.2L371.363 32.776L369.443 34.696V36.104L371.363 38.024L370.787 38.6L371.363 39.176L369.443 41.096V42.504L371.363 44.424L370.787 45L368.867 43.08H367.459L365.539 45L364.963 44.424L366.883 42.504V41.096L364.963 39.176L365.539 38.6L364.963 38.024L366.883 36.104V34.696L364.963 32.776L365.539 32.2L364.963 31.624ZM384.163 31.624L386.083 29.704V28.296L384.163 26.376L384.739 25.8L384.163 25.224L386.083 23.304V21.896L384.163 19.976L384.739 19.4L384.163 18.824L386.083 16.904V15.496L384.163 13.576L384.739 13L386.659 14.92H388.067L389.987 13L390.562 13.576L388.643 15.496V16.904L390.562 18.824L389.987 19.4L390.562 19.976L388.643 21.896V23.304L390.562 25.224L389.987 25.8L390.562 26.376L388.643 28.296V29.704L390.562 31.624L389.987 32.2L388.067 30.28H386.659L384.739 32.2L384.163 31.624ZM377.763 31.624L379.683 29.704V28.296L377.763 26.376L378.339 25.8L380.259 27.72H381.667L383.587 25.8L384.163 26.376L382.243 28.296V29.704L384.163 31.624L383.587 32.2L381.667 30.28H380.259L378.339 32.2L377.763 31.624ZM371.363 31.624L373.283 29.704V28.296L371.363 26.376L371.939 25.8L373.859 27.72H375.267L377.187 25.8L377.763 26.376L375.843 28.296V29.704L377.763 31.624L377.187 32.2L375.267 30.28H373.859L371.939 32.2L371.363 31.624ZM371.363 44.424L373.283 42.504V41.096L371.363 39.176L371.939 38.6L373.859 40.52H375.267L377.187 38.6L377.763 39.176L375.843 41.096V42.504L377.763 44.424L377.187 45L375.267 43.08H373.859L371.939 45L371.363 44.424ZM377.763 18.824L379.683 16.904V15.496L377.763 13.576L378.339 13L380.259 14.92H381.667L383.587 13L384.163 13.576L382.243 15.496V16.904L384.163 18.824L383.587 19.4L381.667 17.48H380.259L378.339 19.4L377.763 18.824ZM377.763 44.424L379.683 42.504V41.096L377.763 39.176L378.339 38.6L380.259 40.52H381.667L383.587 38.6L384.163 39.176L382.243 41.096V42.504L384.163 44.424L383.587 45L381.667 43.08H380.259L378.339 45L377.763 44.424ZM384.163 44.424L386.083 42.504V41.096L384.163 39.176L384.739 38.6L386.659 40.52H388.067L389.987 38.6L390.562 39.176L388.643 41.096V42.504L390.562 44.424L389.987 45L388.067 43.08H386.659L384.739 45L384.163 44.424ZM371.363 18.824L373.283 16.904V15.496L371.363 13.576L371.939 13L373.859 14.92H375.267L377.187 13L377.763 13.576L375.843 15.496V16.904L377.763 18.824L377.187 19.4L375.267 17.48H373.859L371.939 19.4L371.363 18.824ZM367.459 23.88L365.539 25.8L367.459 27.72H368.867L370.787 25.8L368.867 23.88H367.459ZM368.867 21.32L370.787 19.4L368.867 17.48H367.459L365.539 19.4L367.459 21.32H368.867ZM386.659 23.88L384.739 25.8L386.659 27.72H388.067L389.987 25.8L388.067 23.88H386.659ZM388.067 21.32L389.987 19.4L388.067 17.48H386.659L384.739 19.4L386.659 21.32H388.067ZM367.459 30.28L365.539 32.2L367.459 34.12H368.867L370.787 32.2L368.867 30.28H367.459ZM367.459 36.68L365.539 38.6L367.459 40.52H368.867L370.787 38.6L368.867 36.68H367.459ZM200.172 58.4375H189.281V65.7344H197.312V67.5625H189.281V77H187.141V56.6094H200.172V58.4375ZM212.578 59.5312H209.672V56.6094H212.578V59.5312ZM215.484 77H206.75V75.1719H210.047V64.2656H206.75V62.4375H212.203V75.1719H215.484V77ZM235.109 77H232.953V68.0156C232.953 66.7135 232.672 65.7031 232.109 64.9844C231.547 64.2656 230.635 63.9062 229.375 63.9062C228.583 63.9062 227.865 64.0885 227.219 64.4531C226.583 64.8177 226.042 65.3073 225.594 65.9219C225.146 66.526 224.802 67.224 224.562 68.0156C224.333 68.7969 224.219 69.6146 224.219 70.4688V77H222.078V62.4375H224.219V66.0938C225.25 63.4271 227.089 62.0938 229.734 62.0938C233.318 62.0938 235.109 64.0677 235.109 68.0156V77ZM252.578 77H250.422V75.6562C249.807 76.2083 249.13 76.6302 248.391 76.9219C247.661 77.2135 246.911 77.3594 246.141 77.3594C244.984 77.3594 243.948 77.1719 243.031 76.7969C242.115 76.4219 241.339 75.901 240.703 75.2344C240.078 74.5573 239.594 73.75 239.25 72.8125C238.917 71.875 238.75 70.849 238.75 69.7344C238.75 68.6302 238.917 67.6094 239.25 66.6719C239.594 65.724 240.078 64.9167 240.703 64.25C241.339 63.5729 242.115 63.0469 243.031 62.6719C243.948 62.2865 244.984 62.0938 246.141 62.0938C246.911 62.0938 247.661 62.2344 248.391 62.5156C249.13 62.7865 249.807 63.1979 250.422 63.75V58.4375H247.516V56.6094H252.578V77ZM250.422 65.8281C249.807 65.151 249.135 64.6615 248.406 64.3594C247.688 64.0573 246.922 63.9062 246.109 63.9062C245.255 63.9062 244.5 64.0573 243.844 64.3594C243.198 64.6615 242.656 65.0729 242.219 65.5938C241.781 66.1146 241.448 66.7292 241.219 67.4375C241 68.1354 240.891 68.901 240.891 69.7344C240.891 70.5677 241 71.3385 241.219 72.0469C241.448 72.7448 241.781 73.3542 242.219 73.875C242.656 74.3958 243.198 74.8073 243.844 75.1094C244.5 75.4115 245.255 75.5625 246.109 75.5625C247.755 75.5625 249.193 74.9115 250.422 73.6094V65.8281ZM288.469 77H285.75L279.797 68.2656H276.625V77H274.484V56.6094H281.203C283.443 56.6094 285.177 57.099 286.406 58.0781C287.635 59.0469 288.25 60.5 288.25 62.4375C288.25 63.2917 288.099 64.0625 287.797 64.75C287.495 65.4271 287.083 66.0052 286.562 66.4844C286.042 66.9635 285.417 67.349 284.688 67.6406C283.969 67.9323 283.182 68.1094 282.328 68.1719L288.469 77ZM286.031 62.4375C286.031 61.0521 285.599 60.0417 284.734 59.4062C283.88 58.7604 282.703 58.4375 281.203 58.4375H276.625V66.4375H281.203C282.703 66.4375 283.88 66.125 284.734 65.5C285.599 64.8646 286.031 63.8438 286.031 62.4375ZM293.328 70.4688C293.484 72.0104 294.047 73.2396 295.016 74.1562C295.984 75.0729 297.245 75.5312 298.797 75.5312C299.891 75.5312 300.865 75.3073 301.719 74.8594C302.573 74.4115 303.214 73.8542 303.641 73.1875L305.141 74.2188C304.411 75.2396 303.542 76.0208 302.531 76.5625C301.521 77.0938 300.276 77.3594 298.797 77.3594C297.672 77.3594 296.641 77.1719 295.703 76.7969C294.766 76.4219 293.953 75.901 293.266 75.2344C292.589 74.5573 292.062 73.7552 291.688 72.8281C291.312 71.901 291.125 70.8698 291.125 69.7344C291.125 68.6302 291.292 67.6146 291.625 66.6875C291.969 65.75 292.458 64.9427 293.094 64.2656C293.74 63.5781 294.521 63.0469 295.438 62.6719C296.354 62.2865 297.38 62.0938 298.516 62.0938C299.755 62.0938 300.839 62.3021 301.766 62.7188C302.693 63.1354 303.464 63.7135 304.078 64.4531C304.703 65.1823 305.161 66.0573 305.453 67.0781C305.755 68.099 305.906 69.2292 305.906 70.4688H293.328ZM303.641 68.6406C303.401 67.0469 302.823 65.8594 301.906 65.0781C300.99 64.2969 299.859 63.9062 298.516 63.9062C297.828 63.9062 297.193 64.0208 296.609 64.25C296.026 64.4688 295.51 64.7865 295.062 65.2031C294.615 65.6198 294.24 66.125 293.938 66.7188C293.635 67.3021 293.443 67.9427 293.359 68.6406H303.641ZM323.219 69.7344C323.219 70.8698 323.042 71.901 322.688 72.8281C322.333 73.7552 321.833 74.5573 321.188 75.2344C320.552 75.901 319.781 76.4219 318.875 76.7969C317.969 77.1719 316.953 77.3594 315.828 77.3594C315.057 77.3594 314.307 77.2188 313.578 76.9375C312.859 76.6562 312.188 76.2396 311.562 75.6875V82.8281H309.422V62.4375H311.562V63.7812C312.885 62.6562 314.307 62.0938 315.828 62.0938C316.953 62.0938 317.969 62.2812 318.875 62.6562C319.781 63.0208 320.552 63.5469 321.188 64.2344C321.833 64.9115 322.333 65.724 322.688 66.6719C323.042 67.6094 323.219 68.6302 323.219 69.7344ZM321.078 69.7344C321.078 68.9219 320.964 68.1615 320.734 67.4531C320.516 66.7344 320.182 66.1146 319.734 65.5938C319.286 65.0729 318.734 64.6615 318.078 64.3594C317.432 64.0573 316.682 63.9062 315.828 63.9062C315.016 63.9062 314.255 64.0573 313.547 64.3594C312.849 64.6615 312.188 65.151 311.562 65.8281V73.6406C312.188 74.3177 312.849 74.8021 313.547 75.0938C314.255 75.3854 315.016 75.5312 315.828 75.5312C316.682 75.5312 317.432 75.3802 318.078 75.0781C318.734 74.776 319.286 74.3646 319.734 73.8438C320.182 73.3229 320.516 72.7135 320.734 72.0156C320.964 71.3073 321.078 70.5469 321.078 69.7344ZM337.766 77H329.031V75.1719H332.328V58.4375H329.031V56.6094H334.484V75.1719H337.766V77ZM343.562 73.0625C343.562 72.1458 343.792 71.3802 344.25 70.7656C344.708 70.1406 345.307 69.651 346.047 69.2969C346.797 68.9323 347.651 68.6719 348.609 68.5156C349.578 68.349 350.562 68.2656 351.562 68.2656C351.948 68.2656 352.292 68.2708 352.594 68.2812C352.906 68.2917 353.198 68.3073 353.469 68.3281C353.75 68.349 354.031 68.375 354.312 68.4062C354.594 68.4375 354.901 68.474 355.234 68.5156V67.4688C355.234 66.7604 355.078 66.1771 354.766 65.7188C354.464 65.2604 354.089 64.901 353.641 64.6406C353.193 64.3698 352.724 64.1823 352.234 64.0781C351.745 63.9635 351.328 63.9062 350.984 63.9062C349.901 63.9062 348.901 64.0521 347.984 64.3438C347.068 64.6354 346.214 65.026 345.422 65.5156L344.453 63.9062C345.328 63.375 346.307 62.9427 347.391 62.6094C348.484 62.2656 349.682 62.0938 350.984 62.0938C351.776 62.0938 352.552 62.1979 353.312 62.4062C354.083 62.6042 354.771 62.9167 355.375 63.3438C355.99 63.7604 356.479 64.3125 356.844 65C357.208 65.6875 357.391 66.5104 357.391 67.4688V77H355.234V74.5625C354.859 75.0312 354.432 75.4427 353.953 75.7969C353.484 76.151 352.99 76.4427 352.469 76.6719C351.948 76.8906 351.427 77.0573 350.906 77.1719C350.385 77.2969 349.891 77.3594 349.422 77.3594C347.495 77.3594 346.036 76.9896 345.047 76.25C344.057 75.5104 343.562 74.4479 343.562 73.0625ZM349.422 75.5312C350.318 75.5312 351.12 75.401 351.828 75.1406C352.547 74.8698 353.156 74.5365 353.656 74.1406C354.156 73.7448 354.542 73.3229 354.812 72.875C355.094 72.4271 355.234 72.0208 355.234 71.6562V70.2812C354.536 70.1771 353.865 70.1198 353.219 70.1094C352.583 70.099 352.031 70.0938 351.562 70.0938C350.792 70.0938 350.047 70.1458 349.328 70.25C348.62 70.3542 348 70.526 347.469 70.7656C346.938 70.9948 346.51 71.2969 346.188 71.6719C345.865 72.0469 345.703 72.5104 345.703 73.0625C345.703 73.6771 346 74.2448 346.594 74.7656C347.198 75.276 348.141 75.5312 349.422 75.5312ZM375.078 74.2188C374.464 75.1771 373.62 75.9427 372.547 76.5156C371.484 77.0781 370.219 77.3594 368.75 77.3594C367.615 77.3594 366.573 77.1719 365.625 76.7969C364.677 76.4219 363.865 75.901 363.188 75.2344C362.521 74.5573 362 73.7552 361.625 72.8281C361.25 71.901 361.062 70.8698 361.062 69.7344C361.062 68.6302 361.234 67.6094 361.578 66.6719C361.922 65.724 362.411 64.9167 363.047 64.25C363.682 63.5729 364.458 63.0469 365.375 62.6719C366.302 62.2865 367.328 62.0938 368.453 62.0938C368.901 62.0938 369.359 62.1458 369.828 62.25C370.297 62.3542 370.74 62.5156 371.156 62.7344C371.573 62.9427 371.948 63.1979 372.281 63.5C372.615 63.7917 372.865 64.1406 373.031 64.5469V62.4375H374.953V68.2656H373.031C373.031 67.6198 372.911 67.0312 372.672 66.5C372.443 65.9688 372.125 65.5104 371.719 65.125C371.312 64.7396 370.828 64.4427 370.266 64.2344C369.703 64.0156 369.099 63.9062 368.453 63.9062C367.578 63.9062 366.812 64.0573 366.156 64.3594C365.51 64.6615 364.969 65.0729 364.531 65.5938C364.094 66.1146 363.76 66.7292 363.531 67.4375C363.312 68.1354 363.203 68.901 363.203 69.7344C363.203 70.5677 363.328 71.3385 363.578 72.0469C363.839 72.7448 364.208 73.349 364.688 73.8594C365.177 74.3698 365.76 74.776 366.438 75.0781C367.125 75.3802 367.896 75.5312 368.75 75.5312C369.833 75.5312 370.797 75.3177 371.641 74.8906C372.484 74.4635 373.13 73.8958 373.578 73.1875L375.078 74.2188ZM380.672 70.4688C380.828 72.0104 381.391 73.2396 382.359 74.1562C383.328 75.0729 384.589 75.5312 386.141 75.5312C387.234 75.5312 388.208 75.3073 389.062 74.8594C389.917 74.4115 390.557 73.8542 390.984 73.1875L392.484 74.2188C391.755 75.2396 390.885 76.0208 389.875 76.5625C388.865 77.0938 387.62 77.3594 386.141 77.3594C385.016 77.3594 383.984 77.1719 383.047 76.7969C382.109 76.4219 381.297 75.901 380.609 75.2344C379.932 74.5573 379.406 73.7552 379.031 72.8281C378.656 71.901 378.469 70.8698 378.469 69.7344C378.469 68.6302 378.635 67.6146 378.969 66.6875C379.312 65.75 379.802 64.9427 380.438 64.2656C381.083 63.5781 381.865 63.0469 382.781 62.6719C383.698 62.2865 384.724 62.0938 385.859 62.0938C387.099 62.0938 388.182 62.3021 389.109 62.7188C390.036 63.1354 390.807 63.7135 391.422 64.4531C392.047 65.1823 392.505 66.0573 392.797 67.0781C393.099 68.099 393.25 69.2292 393.25 70.4688H380.672ZM390.984 68.6406C390.745 67.0469 390.167 65.8594 389.25 65.0781C388.333 64.2969 387.203 63.9062 385.859 63.9062C385.172 63.9062 384.536 64.0208 383.953 64.25C383.37 64.4688 382.854 64.7865 382.406 65.2031C381.958 65.6198 381.583 66.125 381.281 66.7188C380.979 67.3021 380.786 67.9427 380.703 68.6406H390.984Z" fill="black"/>
</svg>
