<svg width="275" height="104" viewBox="0 0 275 104" fill="none" xmlns="http://www.w3.org/2000/svg">
<g clip-path="url(#clip0_69_266)">
<rect width="274" height="103" transform="translate(0.0773926 0.092865)" fill="white"/>
<path d="M0 0H274V103H0V0Z" fill="#7B7B7B"/>
<path d="M63.653 51.512C61.445 52.952 60.533 53.336 59.381 53.336C57.845 53.336 56.789 52.232 56.789 50.6C56.789 48.248 58.853 45.176 62.021 42.728C64.565 40.76 67.013 39.8 69.557 39.8C71.765 39.8 73.493 40.472 73.493 41.384C73.493 41.912 73.109 42.344 72.677 42.344C72.437 42.344 72.197 42.248 72.005 42.152L70.901 41.528C70.181 41.144 68.981 40.904 68.021 40.904C66.005 40.904 64.133 41.816 62.405 43.64C60.581 45.608 59.189 48.2 59.189 49.736C59.189 50.888 59.909 51.704 60.965 51.704C61.973 51.704 63.029 51.128 64.133 50.024C64.997 49.208 65.429 48.632 66.821 46.616C69.029 43.352 69.701 42.68 70.805 42.68C71.285 42.68 71.573 42.92 71.573 43.352C71.573 43.832 71.285 44.072 70.805 44.072L70.229 44.12C69.077 44.216 68.357 45.416 65.717 51.656C62.837 58.52 60.869 61.88 58.277 64.376C55.349 67.16 51.221 68.936 47.429 68.936C43.493 68.936 40.757 66.68 40.757 63.512C40.757 60.584 43.253 58.136 46.325 58.136C48.437 58.136 50.165 59.288 50.165 60.68C50.165 61.304 49.685 61.832 49.109 61.832C48.725 61.832 48.485 61.64 48.149 61.208C47.189 59.912 46.565 59.528 45.365 59.528C43.349 59.528 41.621 61.352 41.621 63.464C41.621 66.104 44.069 68.168 47.333 68.168C50.309 68.168 53.333 66.968 55.541 64.952C57.173 63.464 58.805 61.064 60.293 57.944L61.685 55.208C62.405 53.672 63.029 52.568 63.653 51.512ZM73.0393 53H70.5912C70.9752 52.52 71.6472 51.512 72.2233 50.6L73.2313 48.872L77.0713 42.584C77.3113 42.2 77.3593 42.008 77.3593 41.912C77.3593 41.768 77.2633 41.624 77.1193 41.624C76.7353 41.624 75.6793 42.248 74.2393 43.304L74.0473 43.448L73.7593 42.92C75.4873 41.336 77.8393 39.992 78.7993 39.992C79.2793 39.992 79.6633 40.328 79.6633 40.808C79.6633 41.288 79.3753 42.008 78.7993 43.064C80.4313 41.336 82.3033 40.184 83.5033 40.184C84.4153 40.184 85.0393 40.616 85.0393 41.288C85.0393 41.816 84.7032 42.248 84.2713 42.248C84.1273 42.248 83.9353 42.2 83.6953 42.104L83.3593 41.912C83.1193 41.816 82.8313 41.768 82.5913 41.768C80.9593 41.768 78.8473 43.448 76.7353 46.568C75.3913 48.488 73.7593 51.272 73.0393 53ZM96.1666 42.824L93.0946 47.96C92.7586 48.536 92.3266 49.304 91.9906 49.976C91.6546 50.648 91.5586 50.888 91.5586 51.176C91.5586 51.464 91.7026 51.656 91.9906 51.656C92.4226 51.656 93.4306 50.984 94.8226 49.736L95.1586 50.312C93.4306 52.04 91.3666 53.288 90.1666 53.288C89.4946 53.288 89.0146 52.904 89.0146 52.328C89.0146 51.8 89.3026 50.984 89.7346 50.168C87.6706 52.136 85.7986 53.24 84.4546 53.24C82.9666 53.24 82.0546 52.28 82.0546 50.696C82.0546 48.2 84.2626 44.888 87.5266 42.392C89.9746 40.568 92.3266 39.656 94.6786 39.656C96.5026 39.656 97.8946 40.28 97.8946 41.096C97.8946 41.528 97.5106 41.864 96.9826 41.864C96.7906 41.864 96.5506 41.816 96.2146 41.672C95.8786 41.528 95.5906 41.432 95.2546 41.288C94.6786 41.048 93.8626 40.904 93.1426 40.904C91.7986 40.904 90.4546 41.432 89.0146 42.488C86.5666 44.36 84.5026 47.672 84.5026 49.736C84.5026 50.744 85.0786 51.416 85.8946 51.416C87.2386 51.416 89.0146 50.168 90.7426 48.008C91.9426 46.52 93.4306 44.36 94.2946 42.824H96.1666ZM100.838 49.256C100.79 48.968 100.742 48.776 100.742 48.68L100.646 48.104L100.358 46.52C99.9736 44.408 99.8296 43.496 99.8296 42.824C99.8296 41.24 100.838 40.376 102.614 40.376C103.046 40.376 103.766 40.376 104.582 40.472H104.774L105.014 40.52L105.062 40.376L106.55 37.544C111.206 28.808 115.91 24.392 120.71 24.392C122.342 24.392 123.254 24.872 123.254 25.688C123.254 26.216 122.87 26.552 122.246 26.552C122.006 26.552 121.67 26.456 121.43 26.36L120.758 25.976C120.278 25.688 119.654 25.544 119.126 25.544C117.926 25.544 116.438 26.312 114.902 27.704C113.846 28.616 112.55 30.248 111.59 31.832C110.822 33.08 109.478 35.672 108.278 38.216L107.702 39.464L107.126 40.664H107.27C107.798 40.712 108.326 40.712 108.422 40.712C109.574 40.712 110.198 40.424 110.294 39.704L110.39 39.176C110.486 38.696 110.822 38.408 111.254 38.408C111.734 38.408 112.07 38.792 112.07 39.32C112.07 40.568 110.87 41.432 109.094 41.432C108.566 41.432 107.318 41.432 106.838 41.384L106.022 43.064L105.206 44.792L102.086 51.512L101.894 51.992C101.942 52.664 101.99 53.096 101.99 53.72C101.99 62.552 97.1896 68.552 90.0856 68.552C88.0216 68.552 86.5336 67.832 86.5336 66.872C86.5336 66.44 86.8696 66.104 87.3976 66.104C87.6856 66.104 87.8296 66.2 88.3576 66.536C88.7896 66.776 89.1256 66.92 89.3656 66.92C90.0856 66.92 91.0456 66.056 92.6776 63.896C93.5416 62.792 94.4536 61.448 95.5096 59.72C96.9496 57.32 98.1976 54.92 100.07 50.936L100.454 50.12L100.838 49.256ZM101.462 48.008L102.374 46.04L103.286 44.072C103.622 43.4 104.054 42.488 104.582 41.384L104.63 41.24C104.582 41.24 104.534 41.24 104.534 41.24C104.246 41.24 104.006 41.192 103.958 41.192C102.038 41.192 101.03 42.344 101.03 44.456C101.03 45.368 101.126 46.328 101.366 47.528L101.462 48.008ZM101.174 53.432L100.982 53.72L98.9656 57.368C96.5656 61.304 93.3496 65.144 90.8056 67.016C91.2376 67.064 91.4776 67.112 91.8136 67.112C97.1416 67.112 101.174 61.304 101.174 53.672V53.432ZM112.956 51.992C113.004 52.664 113.052 53.096 113.052 53.72C113.052 62.552 108.252 68.552 101.148 68.552C99.0841 68.552 97.5961 67.832 97.5961 66.872C97.5961 66.44 97.9321 66.104 98.4601 66.104C98.7481 66.104 98.8921 66.2 99.4201 66.536C99.8521 66.776 100.188 66.92 100.428 66.92C101.148 66.92 102.108 66.056 103.74 63.896C104.604 62.792 105.516 61.448 106.572 59.72C108.012 57.32 109.26 54.92 111.132 50.936L111.516 50.12L111.9 49.256C111.852 48.968 111.804 48.776 111.804 48.68L111.708 48.104L111.42 46.52C111.036 44.408 110.892 43.496 110.892 42.824C110.892 41.24 111.9 40.376 113.676 40.376C114.108 40.376 114.828 40.376 115.644 40.472H115.836L116.076 40.52L116.124 40.376L117.612 37.544C122.268 28.808 126.972 24.392 131.772 24.392C133.404 24.392 134.316 24.872 134.316 25.688C134.316 26.216 133.932 26.552 133.308 26.552C133.068 26.552 132.732 26.456 132.492 26.36L131.82 25.976C131.34 25.688 130.716 25.544 130.188 25.544C128.988 25.544 127.5 26.312 125.964 27.704C124.908 28.616 123.612 30.248 122.652 31.832C121.884 33.08 120.54 35.672 119.34 38.216L118.764 39.464L118.188 40.664H118.332L119.244 40.712C119.58 40.76 119.868 40.76 120.204 40.76C121.26 40.76 121.98 40.616 122.988 40.328C124.044 39.944 124.14 39.944 124.524 39.944C125.148 39.944 125.58 40.328 125.58 40.952C125.58 41.432 125.436 41.864 124.62 43.112L120.972 49.112C120.348 50.168 120.012 50.888 120.012 51.176C120.012 51.368 120.156 51.512 120.396 51.512C120.876 51.512 121.836 50.936 123.228 49.784L123.468 49.592L123.708 50.168C121.836 51.992 119.868 53.192 118.764 53.192C118.044 53.192 117.66 52.808 117.66 52.136C117.66 51.56 117.9 50.984 118.716 49.592L122.604 43.112C123.324 41.96 123.324 41.912 123.324 41.72C123.324 41.576 123.228 41.48 123.036 41.48C122.94 41.48 122.748 41.48 122.604 41.48C122.268 41.528 121.788 41.576 121.26 41.576C120.636 41.576 119.772 41.528 119.292 41.48L117.996 41.384H117.9L117.084 43.064L116.268 44.792L113.148 51.512L112.956 51.992ZM127.404 33.464C127.404 32.552 128.124 31.736 128.892 31.736C129.42 31.736 129.804 32.12 129.804 32.696C129.804 33.512 129.036 34.424 128.268 34.424C127.74 34.424 127.404 34.04 127.404 33.464ZM112.524 48.008L113.436 46.04L114.348 44.072C114.684 43.4 115.116 42.488 115.644 41.384L115.692 41.24C115.644 41.24 115.596 41.24 115.596 41.24C115.308 41.24 115.068 41.192 115.02 41.192C113.1 41.192 112.092 42.344 112.092 44.456C112.092 45.368 112.188 46.328 112.428 47.528L112.524 48.008ZM112.236 53.432L112.092 53.72L110.028 57.368C107.628 61.304 104.412 65.144 101.868 67.016C102.3 67.064 102.54 67.112 102.876 67.112C108.204 67.112 112.236 61.304 112.236 53.672V53.432ZM132.166 44.552L132.022 44.408L131.686 44.024C130.39 42.584 130.15 42.296 130.15 41.672C130.15 40.856 130.966 40.232 132.07 40.232C132.598 40.232 132.934 40.28 134.134 40.424H134.278L134.374 40.328C137.638 34.088 140.806 30.968 143.782 30.968C144.55 30.968 144.982 31.208 144.982 31.592C144.982 31.928 144.694 32.216 144.31 32.216C144.214 32.216 144.022 32.168 143.83 32.12C143.35 32.024 143.254 32.024 143.014 32.024C142.102 32.024 141.046 32.504 140.134 33.368C138.742 34.76 137.59 36.728 136.102 40.568L136.006 40.664C136.534 40.76 136.87 40.76 137.302 40.76C138.694 40.76 139.318 40.376 139.414 39.464V39.08C139.462 38.648 139.75 38.408 140.134 38.408C140.662 38.408 140.998 38.744 140.998 39.32C140.998 40.616 139.606 41.48 137.494 41.48C136.918 41.48 136.342 41.432 135.766 41.336C135.67 41.624 135.526 41.864 135.334 42.488C134.806 43.832 134.374 44.84 133.894 45.656C134.422 46.52 134.662 47.336 134.662 48.2C134.662 51.272 131.974 53.288 127.99 53.288C125.926 53.288 124.63 52.712 124.63 51.8C124.63 51.368 124.918 51.08 125.35 51.08C125.398 51.08 125.446 51.08 125.494 51.128L125.782 51.224C125.926 51.272 126.07 51.272 126.214 51.272C126.742 51.272 127.27 51.032 127.99 50.408C128.95 49.592 130.582 47.384 131.446 45.8L132.07 44.696L132.166 44.552ZM132.502 43.832L132.598 43.736C132.886 43.16 133.126 42.68 133.366 42.2C133.702 41.576 133.798 41.336 133.942 41.048C133.654 41.048 133.414 41 133.174 41C132.262 41 131.686 41.48 131.686 42.2C131.686 42.584 131.878 43.016 132.262 43.496L132.454 43.736C132.454 43.736 132.502 43.784 132.502 43.832ZM133.51 46.376C131.83 49.304 129.43 51.224 126.982 51.704C127.894 52.04 128.518 52.136 129.286 52.136C131.926 52.136 133.99 50.36 133.99 48.152C133.99 47.48 133.846 47 133.51 46.376ZM149.362 44.552C149.362 46.568 147.778 49.4 145.474 51.368C143.986 52.712 142.45 53.384 141.01 53.384C138.994 53.384 137.793 52.088 137.793 49.88C137.793 47.096 140.146 43.688 143.602 41.528C145.378 40.424 147.442 39.704 149.026 39.704C150.13 39.704 150.898 40.184 150.898 40.808C150.898 41.288 150.418 41.624 149.842 41.624C149.65 41.624 149.266 41.576 148.546 41.336C147.73 41.096 147.442 41.048 146.962 41.048C143.89 41.048 140.05 45.752 140.05 49.544C140.05 51.128 140.77 51.992 142.018 51.992C144.706 51.992 147.73 48.536 147.73 45.512C147.73 44.936 147.73 44.696 147.442 43.928C147.346 43.688 147.298 43.448 147.298 43.256C147.298 42.824 147.73 42.392 148.21 42.392C148.93 42.392 149.362 43.256 149.362 44.552ZM155.808 33.512L156.352 32.968V31.432L155.808 30.888L156.096 30.6L156.64 31.144H158.176L158.72 30.6L159.008 30.888L158.464 31.432V32.968L159.008 33.512L158.72 33.8L158.176 33.256H156.64L156.096 33.8L155.808 33.512ZM155.808 39.912L156.352 39.368V37.832L155.808 37.288L156.096 37L156.64 37.544H158.176L158.72 37L159.008 37.288L158.464 37.832V39.368L159.008 39.912L158.72 40.2L158.176 39.656H156.64L156.096 40.2L155.808 39.912ZM159.008 36.712L159.552 36.168V34.632L159.008 34.088L159.296 33.8L159.84 34.344H161.376L161.92 33.8L162.208 34.088L161.664 34.632V36.168L162.208 36.712L161.92 37L161.376 36.456H159.84L159.296 37L159.008 36.712ZM152.608 36.712L153.152 36.168V34.632L152.608 34.088L152.896 33.8L153.44 34.344H154.976L155.52 33.8L155.808 34.088L155.264 34.632V36.168L155.808 36.712L155.52 37L154.976 36.456H153.44L152.896 37L152.608 36.712Z" fill="white"/>
<path d="M118.4 65.584L119 64.984V64.216L118.4 63.616L118.616 63.4L118.4 63.184L119 62.584V61.816L118.4 61.216L118.616 61L119.216 61.6H119.984L120.584 61L120.8 61.216L120.2 61.816V62.584L120.8 63.184L120.584 63.4L120.8 63.616L120.2 64.216V64.984L120.8 65.584L120.584 65.8L120.8 66.016L120.2 66.616V67.384L120.8 67.984L120.584 68.2L120.8 68.416L120.2 69.016V69.784L120.8 70.384L120.584 70.6L120.8 70.816L120.2 71.416V72.184L120.8 72.784L120.584 73L119.984 72.4H119.216L118.616 73L118.4 72.784L119 72.184V71.416L118.4 70.816L118.616 70.6L118.4 70.384L119 69.784V69.016L118.4 68.416L118.616 68.2L118.4 67.984L119 67.384V66.616L118.4 66.016L118.616 65.8L118.4 65.584ZM125.6 65.584L126.2 64.984V64.216L125.6 63.616L125.816 63.4L125.6 63.184L126.2 62.584V61.816L125.6 61.216L125.816 61L126.416 61.6H127.184L127.784 61L128 61.216L127.4 61.816V62.584L128 63.184L127.784 63.4L128 63.616L127.4 64.216V64.984L128 65.584L127.784 65.8L128 66.016L127.4 66.616V67.384L128 67.984L127.784 68.2L128 68.416L127.4 69.016V69.784L128 70.384L127.784 70.6L128 70.816L127.4 71.416V72.184L128 72.784L127.784 73L127.184 72.4H126.416L125.816 73L125.6 72.784L126.2 72.184V71.416L125.6 70.816L125.816 70.6L125.6 70.384L126.2 69.784V69.016L125.6 68.416L125.816 68.2L125.6 67.984L126.2 67.384V66.616L125.6 66.016L125.816 65.8L125.6 65.584ZM132.8 65.584L133.4 64.984V64.216L132.8 63.616L133.016 63.4L132.8 63.184L133.4 62.584V61.816L132.8 61.216L133.016 61L133.616 61.6H134.384L134.984 61L135.2 61.216L134.6 61.816V62.584L135.2 63.184L134.984 63.4L135.2 63.616L134.6 64.216V64.984L135.2 65.584L134.984 65.8L135.2 66.016L134.6 66.616V67.384L135.2 67.984L134.984 68.2L135.2 68.416L134.6 69.016V69.784L135.2 70.384L134.984 70.6L135.2 70.816L134.6 71.416V72.184L135.2 72.784L134.984 73L134.384 72.4H133.616L133.016 73L132.8 72.784L133.4 72.184V71.416L132.8 70.816L133.016 70.6L132.8 70.384L133.4 69.784V69.016L132.8 68.416L133.016 68.2L132.8 67.984L133.4 67.384V66.616L132.8 66.016L133.016 65.8L132.8 65.584ZM123.2 65.584L123.8 64.984V64.216L123.2 63.616L123.416 63.4L124.016 64H124.784L125.384 63.4L125.6 63.616L125 64.216V64.984L125.6 65.584L125.384 65.8L124.784 65.2H124.016L123.416 65.8L123.2 65.584ZM130.4 65.584L131 64.984V64.216L130.4 63.616L130.616 63.4L131.216 64H131.984L132.584 63.4L132.8 63.616L132.2 64.216V64.984L132.8 65.584L132.584 65.8L131.984 65.2H131.216L130.616 65.8L130.4 65.584ZM128 67.984L128.6 67.384V66.616L128 66.016L128.216 65.8L128.816 66.4H129.584L130.184 65.8L130.4 66.016L129.8 66.616V67.384L130.4 67.984L130.184 68.2L129.584 67.6H128.816L128.216 68.2L128 67.984ZM120.8 67.984L121.4 67.384V66.616L120.8 66.016L121.016 65.8L121.616 66.4H122.384L122.984 65.8L123.2 66.016L122.6 66.616V67.384L123.2 67.984L122.984 68.2L122.384 67.6H121.616L121.016 68.2L120.8 67.984ZM119.216 67.6L118.616 68.2L119.216 68.8H119.984L120.584 68.2L119.984 67.6H119.216ZM119.216 65.2L118.616 65.8L119.216 66.4H119.984L120.584 65.8L119.984 65.2H119.216ZM119.216 70L118.616 70.6L119.216 71.2H119.984L120.584 70.6L119.984 70H119.216ZM126.416 70L125.816 70.6L126.416 71.2H127.184L127.784 70.6L127.184 70H126.416ZM133.616 70L133.016 70.6L133.616 71.2H134.384L134.984 70.6L134.384 70H133.616ZM126.416 65.2L125.816 65.8L126.416 66.4H127.184L127.784 65.8L127.184 65.2H126.416ZM126.416 62.8L125.816 63.4L126.416 64H127.184L127.784 63.4L127.184 62.8H126.416ZM126.416 67.6L125.816 68.2L126.416 68.8H127.184L127.784 68.2L127.184 67.6H126.416ZM119.216 62.8L118.616 63.4L119.216 64H119.984L120.584 63.4L119.984 62.8H119.216ZM133.616 67.6L133.016 68.2L133.616 68.8H134.384L134.984 68.2L134.384 67.6H133.616ZM133.616 62.8L133.016 63.4L133.616 64H134.384L134.984 63.4L134.384 62.8H133.616ZM133.616 65.2L133.016 65.8L133.616 66.4H134.384L134.984 65.8L134.384 65.2H133.616ZM140.009 67.984L140.609 67.384V66.616L140.009 66.016L140.225 65.8L140.009 65.584L140.609 64.984V64.216L140.009 63.616L140.225 63.4L140.009 63.184L140.609 62.584V61.816L140.009 61.216L140.225 61L140.825 61.6H141.593L142.193 61L142.409 61.216L141.809 61.816V62.584L142.409 63.184L142.193 63.4L142.409 63.616L141.809 64.216V64.984L142.409 65.584L142.193 65.8L142.409 66.016L141.809 66.616V67.384L142.409 67.984L142.193 68.2L142.409 68.416L141.809 69.016V69.784L142.409 70.384L142.193 70.6L142.409 70.816L141.809 71.416V72.184L142.409 72.784L142.193 73L141.593 72.4H140.825L140.225 73L140.009 72.784L140.609 72.184V71.416L140.009 70.816L140.225 70.6L140.009 70.384L140.609 69.784V69.016L140.009 68.416L140.225 68.2L140.009 67.984ZM147.209 67.984L147.809 67.384V66.616L147.209 66.016L147.425 65.8L147.209 65.584L147.809 64.984V64.216L147.209 63.616L147.425 63.4L147.209 63.184L147.809 62.584V61.816L147.209 61.216L147.425 61L148.025 61.6H148.793L149.393 61L149.609 61.216L149.009 61.816V62.584L149.609 63.184L149.393 63.4L149.609 63.616L149.009 64.216V64.984L149.609 65.584L149.393 65.8L149.609 66.016L149.009 66.616V67.384L149.609 67.984L149.393 68.2L148.793 67.6H148.025L147.425 68.2L147.209 67.984ZM144.809 67.984L145.409 67.384V66.616L144.809 66.016L145.025 65.8L145.625 66.4H146.393L146.993 65.8L147.209 66.016L146.609 66.616V67.384L147.209 67.984L146.993 68.2L146.393 67.6H145.625L145.025 68.2L144.809 67.984ZM142.409 67.984L143.009 67.384V66.616L142.409 66.016L142.625 65.8L143.225 66.4H143.993L144.593 65.8L144.809 66.016L144.209 66.616V67.384L144.809 67.984L144.593 68.2L143.993 67.6H143.225L142.625 68.2L142.409 67.984ZM142.409 72.784L143.009 72.184V71.416L142.409 70.816L142.625 70.6L143.225 71.2H143.993L144.593 70.6L144.809 70.816L144.209 71.416V72.184L144.809 72.784L144.593 73L143.993 72.4H143.225L142.625 73L142.409 72.784ZM144.809 63.184L145.409 62.584V61.816L144.809 61.216L145.025 61L145.625 61.6H146.393L146.993 61L147.209 61.216L146.609 61.816V62.584L147.209 63.184L146.993 63.4L146.393 62.8H145.625L145.025 63.4L144.809 63.184ZM144.809 72.784L145.409 72.184V71.416L144.809 70.816L145.025 70.6L145.625 71.2H146.393L146.993 70.6L147.209 70.816L146.609 71.416V72.184L147.209 72.784L146.993 73L146.393 72.4H145.625L145.025 73L144.809 72.784ZM147.209 72.784L147.809 72.184V71.416L147.209 70.816L147.425 70.6L148.025 71.2H148.793L149.393 70.6L149.609 70.816L149.009 71.416V72.184L149.609 72.784L149.393 73L148.793 72.4H148.025L147.425 73L147.209 72.784ZM142.409 63.184L143.009 62.584V61.816L142.409 61.216L142.625 61L143.225 61.6H143.993L144.593 61L144.809 61.216L144.209 61.816V62.584L144.809 63.184L144.593 63.4L143.993 62.8H143.225L142.625 63.4L142.409 63.184ZM140.825 65.2L140.225 65.8L140.825 66.4H141.593L142.193 65.8L141.593 65.2H140.825ZM141.593 64L142.193 63.4L141.593 62.8H140.825L140.225 63.4L140.825 64H141.593ZM148.025 65.2L147.425 65.8L148.025 66.4H148.793L149.393 65.8L148.793 65.2H148.025ZM148.793 64L149.393 63.4L148.793 62.8H148.025L147.425 63.4L148.025 64H148.793ZM140.825 67.6L140.225 68.2L140.825 68.8H141.593L142.193 68.2L141.593 67.6H140.825ZM140.825 70L140.225 70.6L140.825 71.2H141.593L142.193 70.6L141.593 70H140.825ZM155.008 65.584L155.608 64.984V64.216L155.008 63.616L155.224 63.4L155.008 63.184L155.608 62.584V61.816L155.008 61.216L155.224 61L155.008 60.784L155.608 60.184V59.416L155.008 58.816L155.224 58.6L155.824 59.2H156.592L157.192 58.6L157.408 58.816L156.808 59.416V60.184L157.408 60.784L157.192 61L157.408 61.216L156.808 61.816V62.584L157.408 63.184L157.192 63.4L157.408 63.616L156.808 64.216V64.984L157.408 65.584L157.192 65.8L157.408 66.016L156.808 66.616V67.384L157.408 67.984L157.192 68.2L157.408 68.416L156.808 69.016V69.784L157.408 70.384L157.192 70.6L157.408 70.816L156.808 71.416V72.184L157.408 72.784L157.192 73L156.592 72.4H155.824L155.224 73L155.008 72.784L155.608 72.184V71.416L155.008 70.816L155.224 70.6L155.008 70.384L155.608 69.784V69.016L155.008 68.416L155.224 68.2L155.008 67.984L155.608 67.384V66.616L155.008 66.016L155.224 65.8L155.008 65.584ZM152.608 63.184L153.208 62.584V61.816L152.608 61.216L152.824 61L153.424 61.6H154.192L154.792 61L155.008 61.216L154.408 61.816V62.584L155.008 63.184L154.792 63.4L154.192 62.8H153.424L152.824 63.4L152.608 63.184ZM159.808 72.784L160.408 72.184V71.416L159.808 70.816L160.024 70.6L160.624 71.2H161.392L161.992 70.6L162.208 70.816L161.608 71.416V72.184L162.208 72.784L161.992 73L161.392 72.4H160.624L160.024 73L159.808 72.784ZM157.408 63.184L158.008 62.584V61.816L157.408 61.216L157.624 61L158.224 61.6H158.992L159.592 61L159.808 61.216L159.208 61.816V62.584L159.808 63.184L159.592 63.4L158.992 62.8H158.224L157.624 63.4L157.408 63.184ZM159.808 63.184L160.408 62.584V61.816L159.808 61.216L160.024 61L160.624 61.6H161.392L161.992 61L162.208 61.216L161.608 61.816V62.584L162.208 63.184L161.992 63.4L161.392 62.8H160.624L160.024 63.4L159.808 63.184ZM157.408 72.784L158.008 72.184V71.416L157.408 70.816L157.624 70.6L158.224 71.2H158.992L159.592 70.6L159.808 70.816L159.208 71.416V72.184L159.808 72.784L159.592 73L158.992 72.4H158.224L157.624 73L157.408 72.784ZM155.824 70L155.224 70.6L155.824 71.2H156.592L157.192 70.6L156.592 70H155.824ZM155.824 62.8L155.224 63.4L155.824 64H156.592L157.192 63.4L156.592 62.8H155.824ZM155.824 67.6L155.224 68.2L155.824 68.8H156.592L157.192 68.2L156.592 67.6H155.824ZM156.592 61.6L157.192 61L156.592 60.4H155.824L155.224 61L155.824 61.6H156.592ZM155.824 65.2L155.224 65.8L155.824 66.4H156.592L157.192 65.8L156.592 65.2H155.824ZM173.248 65.584L173.848 64.984V64.216L173.248 63.616L173.464 63.4L173.248 63.184L173.848 62.584V61.816L173.248 61.216L173.464 61L174.064 61.6H174.832L175.432 61L175.648 61.216L175.048 61.816V62.584L175.648 63.184L175.432 63.4L175.648 63.616L175.048 64.216V64.984L175.648 65.584L175.432 65.8L175.648 66.016L175.048 66.616V67.384L175.648 67.984L175.432 68.2L175.648 68.416L175.048 69.016V69.784L175.648 70.384L175.432 70.6L175.648 70.816L175.048 71.416V72.184L175.648 72.784L175.432 73L174.832 72.4H174.064L173.464 73L173.248 72.784L173.848 72.184V71.416L173.248 70.816L173.464 70.6L173.248 70.384L173.848 69.784V69.016L173.248 68.416L173.464 68.2L173.248 67.984L173.848 67.384V66.616L173.248 66.016L173.464 65.8L173.248 65.584ZM166.048 67.984L166.648 67.384V66.616L166.048 66.016L166.264 65.8L166.864 66.4H167.632L168.232 65.8L168.448 66.016L167.848 66.616V67.384L168.448 67.984L168.232 68.2L168.448 68.416L167.848 69.016V69.784L168.448 70.384L168.232 70.6L168.448 70.816L167.848 71.416V72.184L168.448 72.784L168.232 73L167.632 72.4H166.864L166.264 73L166.048 72.784L166.648 72.184V71.416L166.048 70.816L166.264 70.6L166.048 70.384L166.648 69.784V69.016L166.048 68.416L166.264 68.2L166.048 67.984ZM170.848 72.784L171.448 72.184V71.416L170.848 70.816L171.064 70.6L171.664 71.2H172.432L173.032 70.6L173.248 70.816L172.648 71.416V72.184L173.248 72.784L173.032 73L172.432 72.4H171.664L171.064 73L170.848 72.784ZM168.448 72.784L169.048 72.184V71.416L168.448 70.816L168.664 70.6L169.264 71.2H170.032L170.632 70.6L170.848 70.816L170.248 71.416V72.184L170.848 72.784L170.632 73L170.032 72.4H169.264L168.664 73L168.448 72.784ZM170.848 67.984L171.448 67.384V66.616L170.848 66.016L171.064 65.8L171.664 66.4H172.432L173.032 65.8L173.248 66.016L172.648 66.616V67.384L173.248 67.984L173.032 68.2L172.432 67.6H171.664L171.064 68.2L170.848 67.984ZM166.048 63.184L166.648 62.584V61.816L166.048 61.216L166.264 61L166.864 61.6H167.632L168.232 61L168.448 61.216L167.848 61.816V62.584L168.448 63.184L168.232 63.4L167.632 62.8H166.864L166.264 63.4L166.048 63.184ZM170.848 63.184L171.448 62.584V61.816L170.848 61.216L171.064 61L171.664 61.6H172.432L173.032 61L173.248 61.216L172.648 61.816V62.584L173.248 63.184L173.032 63.4L172.432 62.8H171.664L171.064 63.4L170.848 63.184ZM168.448 67.984L169.048 67.384V66.616L168.448 66.016L168.664 65.8L169.264 66.4H170.032L170.632 65.8L170.848 66.016L170.248 66.616V67.384L170.848 67.984L170.632 68.2L170.032 67.6H169.264L168.664 68.2L168.448 67.984ZM168.448 63.184L169.048 62.584V61.816L168.448 61.216L168.664 61L169.264 61.6H170.032L170.632 61L170.848 61.216L170.248 61.816V62.584L170.848 63.184L170.632 63.4L170.032 62.8H169.264L168.664 63.4L168.448 63.184ZM174.064 62.8L173.464 63.4L174.064 64H174.832L175.432 63.4L174.832 62.8H174.064ZM167.632 71.2L168.232 70.6L167.632 70H166.864L166.264 70.6L166.864 71.2H167.632ZM174.064 70L173.464 70.6L174.064 71.2H174.832L175.432 70.6L174.832 70H174.064ZM174.064 65.2L173.464 65.8L174.064 66.4H174.832L175.432 65.8L174.832 65.2H174.064ZM174.064 67.6L173.464 68.2L174.064 68.8H174.832L175.432 68.2L174.832 67.6H174.064ZM167.632 68.8L168.232 68.2L167.632 67.6H166.864L166.264 68.2L166.864 68.8H167.632ZM187.639 65.584L188.239 64.984V64.216L187.639 63.616L187.855 63.4L187.639 63.184L188.239 62.584V61.816L187.639 61.216L187.855 61L187.639 60.784L188.239 60.184V59.416L187.639 58.816L187.855 58.6L187.639 58.384L188.239 57.784V57.016L187.639 56.416L187.855 56.2L188.455 56.8H189.223L189.823 56.2L190.039 56.416L189.439 57.016V57.784L190.039 58.384L189.823 58.6L190.039 58.816L189.439 59.416V60.184L190.039 60.784L189.823 61L190.039 61.216L189.439 61.816V62.584L190.039 63.184L189.823 63.4L190.039 63.616L189.439 64.216V64.984L190.039 65.584L189.823 65.8L190.039 66.016L189.439 66.616V67.384L190.039 67.984L189.823 68.2L190.039 68.416L189.439 69.016V69.784L190.039 70.384L189.823 70.6L190.039 70.816L189.439 71.416V72.184L190.039 72.784L189.823 73L189.223 72.4H188.455L187.855 73L187.639 72.784L188.239 72.184V71.416L187.639 70.816L187.855 70.6L187.639 70.384L188.239 69.784V69.016L187.639 68.416L187.855 68.2L187.639 67.984L188.239 67.384V66.616L187.639 66.016L187.855 65.8L187.639 65.584ZM180.439 63.184L181.039 62.584V61.816L180.439 61.216L180.655 61L181.255 61.6H182.023L182.623 61L182.839 61.216L182.239 61.816V62.584L182.839 63.184L182.623 63.4L182.839 63.616L182.239 64.216V64.984L182.839 65.584L182.623 65.8L182.839 66.016L182.239 66.616V67.384L182.839 67.984L182.623 68.2L182.839 68.416L182.239 69.016V69.784L182.839 70.384L182.623 70.6L182.839 70.816L182.239 71.416V72.184L182.839 72.784L182.623 73L182.023 72.4H181.255L180.655 73L180.439 72.784L181.039 72.184V71.416L180.439 70.816L180.655 70.6L180.439 70.384L181.039 69.784V69.016L180.439 68.416L180.655 68.2L180.439 67.984L181.039 67.384V66.616L180.439 66.016L180.655 65.8L180.439 65.584L181.039 64.984V64.216L180.439 63.616L180.655 63.4L180.439 63.184ZM182.839 72.784L183.439 72.184V71.416L182.839 70.816L183.055 70.6L183.655 71.2H184.423L185.023 70.6L185.239 70.816L184.639 71.416V72.184L185.239 72.784L185.023 73L184.423 72.4H183.655L183.055 73L182.839 72.784ZM185.239 63.184L185.839 62.584V61.816L185.239 61.216L185.455 61L186.055 61.6H186.823L187.423 61L187.639 61.216L187.039 61.816V62.584L187.639 63.184L187.423 63.4L186.823 62.8H186.055L185.455 63.4L185.239 63.184ZM185.239 70.384L185.839 69.784V69.016L185.239 68.416L185.455 68.2L186.055 68.8H186.823L187.423 68.2L187.639 68.416L187.039 69.016V69.784L187.639 70.384L187.423 70.6L186.823 70H186.055L185.455 70.6L185.239 70.384ZM182.839 63.184L183.439 62.584V61.816L182.839 61.216L183.055 61L183.655 61.6H184.423L185.023 61L185.239 61.216L184.639 61.816V62.584L185.239 63.184L185.023 63.4L184.423 62.8H183.655L183.055 63.4L182.839 63.184ZM182.023 71.2L182.623 70.6L182.023 70H181.255L180.655 70.6L181.255 71.2H182.023ZM188.455 67.6L187.855 68.2L188.455 68.8H189.223L189.823 68.2L189.223 67.6H188.455ZM188.455 62.8L187.855 63.4L188.455 64H189.223L189.823 63.4L189.223 62.8H188.455ZM188.455 65.2L187.855 65.8L188.455 66.4H189.223L189.823 65.8L189.223 65.2H188.455ZM189.223 61.6L189.823 61L189.223 60.4H188.455L187.855 61L188.455 61.6H189.223ZM188.455 70L187.855 70.6L188.455 71.2H189.223L189.823 70.6L189.223 70H188.455ZM182.023 64L182.623 63.4L182.023 62.8H181.255L180.655 63.4L181.255 64H182.023ZM189.223 59.2L189.823 58.6L189.223 58H188.455L187.855 58.6L188.455 59.2H189.223ZM182.023 68.8L182.623 68.2L182.023 67.6H181.255L180.655 68.2L181.255 68.8H182.023ZM182.023 66.4L182.623 65.8L182.023 65.2H181.255L180.655 65.8L181.255 66.4H182.023ZM202.03 65.584L202.63 64.984V64.216L202.03 63.616L202.246 63.4L202.03 63.184L202.63 62.584V61.816L202.03 61.216L202.246 61L202.846 61.6H203.614L204.214 61L204.43 61.216L203.83 61.816V62.584L204.43 63.184L204.214 63.4L204.43 63.616L203.83 64.216V64.984L204.43 65.584L204.214 65.8L204.43 66.016L203.83 66.616V67.384L204.43 67.984L204.214 68.2L204.43 68.416L203.83 69.016V69.784L204.43 70.384L204.214 70.6L204.43 70.816L203.83 71.416V72.184L204.43 72.784L204.214 73L203.614 72.4H202.846L202.246 73L202.03 72.784L202.63 72.184V71.416L202.03 70.816L202.246 70.6L202.03 70.384L202.63 69.784V69.016L202.03 68.416L202.246 68.2L202.03 67.984L202.63 67.384V66.616L202.03 66.016L202.246 65.8L202.03 65.584ZM194.83 67.984L195.43 67.384V66.616L194.83 66.016L195.046 65.8L195.646 66.4H196.414L197.014 65.8L197.23 66.016L196.63 66.616V67.384L197.23 67.984L197.014 68.2L197.23 68.416L196.63 69.016V69.784L197.23 70.384L197.014 70.6L197.23 70.816L196.63 71.416V72.184L197.23 72.784L197.014 73L196.414 72.4H195.646L195.046 73L194.83 72.784L195.43 72.184V71.416L194.83 70.816L195.046 70.6L194.83 70.384L195.43 69.784V69.016L194.83 68.416L195.046 68.2L194.83 67.984ZM199.63 72.784L200.23 72.184V71.416L199.63 70.816L199.846 70.6L200.446 71.2H201.214L201.814 70.6L202.03 70.816L201.43 71.416V72.184L202.03 72.784L201.814 73L201.214 72.4H200.446L199.846 73L199.63 72.784ZM197.23 72.784L197.83 72.184V71.416L197.23 70.816L197.446 70.6L198.046 71.2H198.814L199.414 70.6L199.63 70.816L199.03 71.416V72.184L199.63 72.784L199.414 73L198.814 72.4H198.046L197.446 73L197.23 72.784ZM199.63 67.984L200.23 67.384V66.616L199.63 66.016L199.846 65.8L200.446 66.4H201.214L201.814 65.8L202.03 66.016L201.43 66.616V67.384L202.03 67.984L201.814 68.2L201.214 67.6H200.446L199.846 68.2L199.63 67.984ZM194.83 63.184L195.43 62.584V61.816L194.83 61.216L195.046 61L195.646 61.6H196.414L197.014 61L197.23 61.216L196.63 61.816V62.584L197.23 63.184L197.014 63.4L196.414 62.8H195.646L195.046 63.4L194.83 63.184ZM199.63 63.184L200.23 62.584V61.816L199.63 61.216L199.846 61L200.446 61.6H201.214L201.814 61L202.03 61.216L201.43 61.816V62.584L202.03 63.184L201.814 63.4L201.214 62.8H200.446L199.846 63.4L199.63 63.184ZM197.23 67.984L197.83 67.384V66.616L197.23 66.016L197.446 65.8L198.046 66.4H198.814L199.414 65.8L199.63 66.016L199.03 66.616V67.384L199.63 67.984L199.414 68.2L198.814 67.6H198.046L197.446 68.2L197.23 67.984ZM197.23 63.184L197.83 62.584V61.816L197.23 61.216L197.446 61L198.046 61.6H198.814L199.414 61L199.63 61.216L199.03 61.816V62.584L199.63 63.184L199.414 63.4L198.814 62.8H198.046L197.446 63.4L197.23 63.184ZM202.846 62.8L202.246 63.4L202.846 64H203.614L204.214 63.4L203.614 62.8H202.846ZM196.414 71.2L197.014 70.6L196.414 70H195.646L195.046 70.6L195.646 71.2H196.414ZM202.846 70L202.246 70.6L202.846 71.2H203.614L204.214 70.6L203.614 70H202.846ZM202.846 65.2L202.246 65.8L202.846 66.4H203.614L204.214 65.8L203.614 65.2H202.846ZM202.846 67.6L202.246 68.2L202.846 68.8H203.614L204.214 68.2L203.614 67.6H202.846ZM196.414 68.8L197.014 68.2L196.414 67.6H195.646L195.046 68.2L195.646 68.8H196.414ZM210.18 65.584L210.78 64.984V64.216L210.18 63.616L210.396 63.4L210.18 63.184L210.78 62.584V61.816L210.18 61.216L210.396 61L210.18 60.784L210.78 60.184V59.416L210.18 58.816L210.396 58.6L210.996 59.2H211.764L212.364 58.6L212.58 58.816L211.98 59.416V60.184L212.58 60.784L212.364 61L212.58 61.216L211.98 61.816V62.584L212.58 63.184L212.364 63.4L212.58 63.616L211.98 64.216V64.984L212.58 65.584L212.364 65.8L212.58 66.016L211.98 66.616V67.384L212.58 67.984L212.364 68.2L212.58 68.416L211.98 69.016V69.784L212.58 70.384L212.364 70.6L212.58 70.816L211.98 71.416V72.184L212.58 72.784L212.364 73L211.764 72.4H210.996L210.396 73L210.18 72.784L210.78 72.184V71.416L210.18 70.816L210.396 70.6L210.18 70.384L210.78 69.784V69.016L210.18 68.416L210.396 68.2L210.18 67.984L210.78 67.384V66.616L210.18 66.016L210.396 65.8L210.18 65.584ZM207.78 63.184L208.38 62.584V61.816L207.78 61.216L207.996 61L208.596 61.6H209.364L209.964 61L210.18 61.216L209.58 61.816V62.584L210.18 63.184L209.964 63.4L209.364 62.8H208.596L207.996 63.4L207.78 63.184ZM214.98 72.784L215.58 72.184V71.416L214.98 70.816L215.196 70.6L215.796 71.2H216.564L217.164 70.6L217.38 70.816L216.78 71.416V72.184L217.38 72.784L217.164 73L216.564 72.4H215.796L215.196 73L214.98 72.784ZM212.58 63.184L213.18 62.584V61.816L212.58 61.216L212.796 61L213.396 61.6H214.164L214.764 61L214.98 61.216L214.38 61.816V62.584L214.98 63.184L214.764 63.4L214.164 62.8H213.396L212.796 63.4L212.58 63.184ZM214.98 63.184L215.58 62.584V61.816L214.98 61.216L215.196 61L215.796 61.6H216.564L217.164 61L217.38 61.216L216.78 61.816V62.584L217.38 63.184L217.164 63.4L216.564 62.8H215.796L215.196 63.4L214.98 63.184ZM212.58 72.784L213.18 72.184V71.416L212.58 70.816L212.796 70.6L213.396 71.2H214.164L214.764 70.6L214.98 70.816L214.38 71.416V72.184L214.98 72.784L214.764 73L214.164 72.4H213.396L212.796 73L212.58 72.784ZM210.996 70L210.396 70.6L210.996 71.2H211.764L212.364 70.6L211.764 70H210.996ZM210.996 62.8L210.396 63.4L210.996 64H211.764L212.364 63.4L211.764 62.8H210.996ZM210.996 67.6L210.396 68.2L210.996 68.8H211.764L212.364 68.2L211.764 67.6H210.996ZM211.764 61.6L212.364 61L211.764 60.4H210.996L210.396 61L210.996 61.6H211.764ZM210.996 65.2L210.396 65.8L210.996 66.4H211.764L212.364 65.8L211.764 65.2H210.996ZM228.42 65.584L229.02 64.984V64.216L228.42 63.616L228.636 63.4L228.42 63.184L229.02 62.584V61.816L228.42 61.216L228.636 61L229.236 61.6H230.004L230.604 61L230.82 61.216L230.22 61.816V62.584L230.82 63.184L230.604 63.4L230.82 63.616L230.22 64.216V64.984L230.82 65.584L230.604 65.8L230.82 66.016L230.22 66.616V67.384L230.82 67.984L230.604 68.2L230.82 68.416L230.22 69.016V69.784L230.82 70.384L230.604 70.6L230.82 70.816L230.22 71.416V72.184L230.82 72.784L230.604 73L230.004 72.4H229.236L228.636 73L228.42 72.784L229.02 72.184V71.416L228.42 70.816L228.636 70.6L228.42 70.384L229.02 69.784V69.016L228.42 68.416L228.636 68.2L228.42 67.984L229.02 67.384V66.616L228.42 66.016L228.636 65.8L228.42 65.584ZM221.22 67.984L221.82 67.384V66.616L221.22 66.016L221.436 65.8L222.036 66.4H222.804L223.404 65.8L223.62 66.016L223.02 66.616V67.384L223.62 67.984L223.404 68.2L223.62 68.416L223.02 69.016V69.784L223.62 70.384L223.404 70.6L223.62 70.816L223.02 71.416V72.184L223.62 72.784L223.404 73L222.804 72.4H222.036L221.436 73L221.22 72.784L221.82 72.184V71.416L221.22 70.816L221.436 70.6L221.22 70.384L221.82 69.784V69.016L221.22 68.416L221.436 68.2L221.22 67.984ZM226.02 72.784L226.62 72.184V71.416L226.02 70.816L226.236 70.6L226.836 71.2H227.604L228.204 70.6L228.42 70.816L227.82 71.416V72.184L228.42 72.784L228.204 73L227.604 72.4H226.836L226.236 73L226.02 72.784ZM223.62 72.784L224.22 72.184V71.416L223.62 70.816L223.836 70.6L224.436 71.2H225.204L225.804 70.6L226.02 70.816L225.42 71.416V72.184L226.02 72.784L225.804 73L225.204 72.4H224.436L223.836 73L223.62 72.784ZM226.02 67.984L226.62 67.384V66.616L226.02 66.016L226.236 65.8L226.836 66.4H227.604L228.204 65.8L228.42 66.016L227.82 66.616V67.384L228.42 67.984L228.204 68.2L227.604 67.6H226.836L226.236 68.2L226.02 67.984ZM221.22 63.184L221.82 62.584V61.816L221.22 61.216L221.436 61L222.036 61.6H222.804L223.404 61L223.62 61.216L223.02 61.816V62.584L223.62 63.184L223.404 63.4L222.804 62.8H222.036L221.436 63.4L221.22 63.184ZM226.02 63.184L226.62 62.584V61.816L226.02 61.216L226.236 61L226.836 61.6H227.604L228.204 61L228.42 61.216L227.82 61.816V62.584L228.42 63.184L228.204 63.4L227.604 62.8H226.836L226.236 63.4L226.02 63.184ZM223.62 67.984L224.22 67.384V66.616L223.62 66.016L223.836 65.8L224.436 66.4H225.204L225.804 65.8L226.02 66.016L225.42 66.616V67.384L226.02 67.984L225.804 68.2L225.204 67.6H224.436L223.836 68.2L223.62 67.984ZM223.62 63.184L224.22 62.584V61.816L223.62 61.216L223.836 61L224.436 61.6H225.204L225.804 61L226.02 61.216L225.42 61.816V62.584L226.02 63.184L225.804 63.4L225.204 62.8H224.436L223.836 63.4L223.62 63.184ZM229.236 62.8L228.636 63.4L229.236 64H230.004L230.604 63.4L230.004 62.8H229.236ZM222.804 71.2L223.404 70.6L222.804 70H222.036L221.436 70.6L222.036 71.2H222.804ZM229.236 70L228.636 70.6L229.236 71.2H230.004L230.604 70.6L230.004 70H229.236ZM229.236 65.2L228.636 65.8L229.236 66.4H230.004L230.604 65.8L230.004 65.2H229.236ZM229.236 67.6L228.636 68.2L229.236 68.8H230.004L230.604 68.2L230.004 67.6H229.236ZM222.804 68.8L223.404 68.2L222.804 67.6H222.036L221.436 68.2L222.036 68.8H222.804ZM235.771 72.712L236.315 72.168V70.632L235.771 70.088L236.059 69.8L236.603 70.344H238.139L238.683 69.8L238.971 70.088L238.427 70.632V72.168L238.971 72.712L238.683 73L238.139 72.456H236.603L236.059 73L235.771 72.712Z" fill="white"/>
<line x1="159" y1="46.75" x2="231" y2="46.75" stroke="white" stroke-width="0.5"/>
</g>
<defs>
<clipPath id="clip0_69_266">
<rect width="274" height="103" fill="white" transform="translate(0.0773926 0.092865)"/>
</clipPath>
</defs>
</svg>
